<?xml version="1.0" encoding="utf-8"?>
<!-- Generator: Adobe Illustrator 24.0.1, SVG Export Plug-In . SVG Version: 6.00 Build 0)  -->
<svg version="1.2" baseProfile="tiny" xmlns="http://www.w3.org/2000/svg" xmlns:xlink="http://www.w3.org/1999/xlink" x="0px"
	 y="0px" viewBox="271.92 154.84 296.74 284.67" xml:space="preserve">
<g id="Pakistan_-_Provinces">
	
		<path id="Sindh" fill-rule="evenodd" fill="#FFE3CA" stroke="#999999" stroke-width="0.25" stroke-linecap="round" stroke-linejoin="round" d="
		M393.11,432.75l0.08-0.28l0.37-0.16l0,0l-0.14-0.05l-0.36-0.23l-0.82,0.28l-0.42-0.01l-0.27-0.27l0.11,0.33l0.07,0.12l0.15,0.24
		l0.29,0.29l0.32,0.12l0.49-0.12L393.11,432.75z M459.23,424.52l-0.64-0.21l-0.73-0.12l-0.42-0.24l-0.05-0.15l-0.02-0.15l0-0.15
		l0.03-0.16l0.04-0.4l0.06-0.14l0.03-0.13l-0.02-0.12l-0.07-0.11l-0.35-0.31l-0.05-0.57l0.15-0.63l0.26-0.48l1.21-0.59l0.38-0.27
		l-0.13-0.21l-0.36-0.56l-0.62-1.76l-1.1-1.73l-0.51-1.06l-0.4-1.12l-0.61-2.78l-0.21-0.48l-0.31-0.4l-1.15-1.01l-0.61-0.69
		l-0.22-0.4l-0.08-0.48l-0.15-0.51l-0.73-0.8l-0.29-0.43l-0.14-0.7l0.11-2.32l0.09-1.78l-0.07-0.83l-0.39-0.55l-0.73-0.15l-0.69,0.2
		l-0.69,0.3l-0.72,0.15l-2.14,0.06l-1.03-0.23l-0.72-0.26l-0.28-0.21l-0.27-0.47l-0.37-1.12l-0.34-0.42l-0.76-0.66l-0.72-0.86
		l-0.58-0.98l-0.34-1.03l-0.01-0.31l0.16-1.06l0.02-0.73l0.08-0.34l0.98-1.65l0.27-0.75l0.09-0.75l-0.14-0.82l-0.03-0.4l0.1-0.4
		l0.17-0.42l0.06-0.35l-0.06-0.81l0.11-1.68l-0.09-0.75l-0.52-0.66l-0.66-0.37l-0.69-0.18l-4.4,0.18l-0.79-0.3l-1.32-1.19
		l-0.75-0.51l-2.84-1.18l-0.57-0.64l-0.14-0.84l0.38-2.44l0.4-2.53l0.49-1.55l0.75-1.29l1.66-1.68l1.18-0.83l2.15-2.06l1.1-1.79
		l1.56-1.52l0.43-0.61l1.35-3.99l0.21-0.38l1.59-1.66l-0.01,0l-2.09-0.99l-1.14-0.69l-0.29-0.24l-0.35-0.36l-1.14-1.69l-0.29-0.58
		l-1.14-3.41l-0.06-0.39l-0.04-0.15l-0.09-0.18l-0.16-0.22l-0.09-0.16l-0.04-0.17l0-0.7l-0.02-0.15l-0.07-0.17l-0.13-0.2l-0.23-0.18
		l-0.16-0.08l-0.15-0.05l-0.29-0.27l-0.4-0.9l-0.52-0.15l-1.73-0.22l-0.11-0.04l-0.06-0.06l-0.03-0.08l0-0.16l-0.01-0.08l-0.03-0.1
		l-0.06-0.08l-0.08-0.07l-0.1-0.05l-0.47-0.14l-0.5-0.07l-0.46,0l-0.25,0.02l-1.94,0.85l-2.44,0.06l-8.71,0.39l-3.14-0.21
		l-1.89,0.26l-0.51,0.16l-0.11,0.05l-0.15,0.1l-0.25,0.23l-0.13,0.15l-0.91,1.51l-0.07,0.08l-0.06,0.05l-0.1,0.08l-0.14,0.08
		l-1.57,0.66l-0.83,0.6l-0.33,0.35l-4.02,3.12l-0.54,0.64l-0.82,1.25l-4.42,2.02l-2.37,0.61l-2.06,0.28l-0.72,0.39l-0.22,0.39
		l-0.87,2.1l-1.27,1.66l-1.22,2.18l-0.24,0.54l-0.13,0.39l-0.11,0.67l-0.68,3.02l-0.12,0.94l-0.03,0.71l0.21,2.01l0.13,8.63
		l0.04,1.68l0.12,1l0.2,0.91l0.15,0.42l4.69,8.74l0.18,0.72l0.06,0.56l-0.3,1.82l0,0.39l0.11,1.05l0.01,0.54l-0.09,0.63l-0.2,0.71
		l-0.93,2.5l-0.25,0.41l-0.58,0.65l-0.66,0.8l-0.27,0.55l-0.11,0.3l-0.12,0.18l-0.16,0.14l-0.49,0.27l-0.14,0.19l-0.94,1.7
		l-0.1,0.26l-0.05,0.19l0.01,0.12l0.08,0.42l0.02,0.22l-0.03,0.18l-0.07,0.25l-0.46,1.21l-0.13,0.22l-0.12,0.16l-0.33,0.28
		l-0.53,0.45l-0.64,0.78l-0.17,0.25l-0.1,0.19l-0.02,0.11l-0.01,0.12l0.02,0.36l-0.01,0.16l-0.1,0.32l-0.18,0.31l-0.36,0.53
		l-0.45,0.48l-0.25,0.17l-0.24,0.13l-0.25,0.09l-0.73,0.09l-0.09,0.02l-0.12,0.05l-0.23,0.13l-2.89,2.37l-0.5,0.25l-0.37,0.42
		l-0.05,0.39l0.47,0.17l0.21-0.04l0.46-0.18l0.97-0.11l0.19-0.08l0.42,0.23l0.45-0.09l0.48-0.16l0.52,0.02l0.39,0.24l0.34,0.3
		l0.35,0.24l0.44,0.05l-0.09-0.16l-0.04-0.15l0-0.37h0.14l0.14,0.21l0.26,0.22l0.32,0.17l0.33,0.07l0.75,0.57l0.34,0.15l-0.16-0.44
		l0.14-0.15l0.34,0.13l0.2-0.01l0.2-0.07l0.33-0.04l0.16,0.07l0.14,0.17l0.1,0.2l0.1,0.43l0.16,0.05l0.67-0.14l0.2-0.1l0.16-0.02
		l0.23,0.18l0.19,0.28l-0.05,0.15l-0.52,0.27l-0.45,0.33l-0.45,0.44l-0.34,0.52l-0.14,0.56l0.05,0.39l0.14,0.07l0.23-0.07l0.32-0.04
		l0.34,0.08l0.27,0.13l0.53,0.34l-0.29,0.13l-0.34,0.03l-0.34-0.05l-0.29-0.11l0.03,0.29l0.06,0.3l0.11,0.28l0.17,0.24l0.41,0.05
		l0.07,0.15l-0.36,0.33l0.36,0.39l0.29,0.42l0.18,0.46l0.04,0.52l0.27-0.16l0.13-0.11l0.11-0.14l-0.24,0.89l-0.04,0.52l0.21,0.23
		h0.78l0.31,0.08l0.36,0.2l-0.48-0.05l-0.56,0.07l-0.36,0.27l0.12,0.53l-0.06,0.09l-0.1,0.22l-0.09,0.13l0.17,0.23l0.07,0.16l0.02,1
		l0.04,0.26l0.09,0.26l0.48,0.85l0.19,0.5l0.08,0.65l0.23,0.31l0.54,0.08l1.05-0.07l0.49,0.12l0.4,0.2l0.38,0.04l0.43-0.36
		l-0.06,0.31l-0.18,0.2l-0.51,0.34l-0.26-0.09l-0.18,0.21l-0.31,0.69l0.23,0.11l0.78,0.16l-0.12,0.45l-0.05,0.32l0.04,0.2l0.19,0.05
		l0.2-0.1l0.2-0.14l0.18-0.08l-0.15,0.2l-0.21,0.44l-0.15,0.18l-0.18,0.11l-0.13,0.01l-0.13-0.02l-0.17,0.03l0.23,0.17l1.02,0.24
		l-0.2-0.18l-0.11-0.22l0.04-0.16l0.26,0.02l0.21,0.19l0.15,0.24l0.15,0.09l0.25-0.26l0.02,0.36l0.19,0.25l0.27,0.08l0.27-0.13
		l0.15-0.35l0.01-0.83l0.23-0.34l0.01,0.07l0,0.06l0.02,0.03l0.08-0.01v0.12l-0.1,0.25l-0.15,1.13l-0.07,0.2l-0.08,0.15l-0.07,0.17
		l-0.03,0.24l0.04,0.18l0.11,0.03l0.16-0.02l0.18,0.02l0.68,0.17l0.4,0.04l0.3-0.07l0.21-0.27l-0.05-0.29l-0.19-0.25l-0.22-0.16
		l1,0.45l0.54,0.17l0.53,0.07l0.13-0.28l0.18-1.32l0.11-0.45l0.15,0.18l0.02,0.74l0.08,0.31l0.27-0.29l0.15-0.1l0.15,0.04l0.11,0.17
		l-0.02,0.26l0.1,0.2l0.13,0.05l0.17-0.01l0.15,0.02l0.06,0.13l0.07,0.21l0.17,0.14l0.2,0.08l0.18,0.05l0.03-0.06l0.18-0.09
		l0.2-0.03l0.09,0.11l0.02,0.17l0.06,0.24l0.08,0.22l0.1,0.11l0.2-0.12l0.21-0.36l0.33-0.74l-0.23-0.46l-0.51-1.74l0.2,0.08
		l0.43,0.28l0.29-0.04l-0.04,0.24l-0.14,0.53l0.1,0.46l0.24,0.4l0.29,0.32l0.25,0.21v0.12h-0.26l-0.12,0.08l-0.13,0.35l-0.02,0.1
		l0.02,0.37l-0.06,0.08l-0.26,0.19l-0.06,0.14l0.16,0.41l0.35,0.29l0.31-0.01l0.06-0.49l0.52,0.51l0.34,0.27l0.15-0.03L405.8,439
		l-0.19-0.58l-0.02-0.36l0.1-0.4l0.33-0.78l0.07-0.4l-0.03-0.1l-0.16-0.26l-0.05-0.13l-0.02-0.2l0.02-0.62l0.47,1.23l0,0.03
		l0.01-0.02l0.43-0.67l0.14-0.09l0.33-0.15l0.13-0.08l0.06-0.01l0.18,0.03l0.07,0l0.07-0.07l-0.04-0.08l-0.08-0.07l-0.03-0.04
		l0.02-0.13l-0.01-0.18l0.04-0.18l0.16-0.14l0.18-0.04l0.07,0.08l0.04,0.16l0.11,0.19l0.26,0.12l0.25-0.11l0.22-0.24l0.17-0.26
		l-0.02-0.14l-0.07-0.2l0.01-0.17l0.22-0.04l0.11,0.08l0.06,0.16l0.03,0.19l0,0.16l0.58-0.42l0.84-0.13l2.13,0.02l1.8,0.01
		l1.43,0.01l0.01-2.78l0.01-2.1l0.01-1.61l0.39-0.84l0.95,0.04l0.27,0.41l0.11,1.17l0.35,0.28l0.19-0.15l0.57-1.07l0.06-0.16
		l0.03-0.16l0.1-0.12l0.25-0.02l0.16,0.07l0.16,0.14l0.14,0.16l0.35,0.64l0.26,0.26l0.33,0.04l0.49-0.18l0.74-0.42l0.35-0.06
		l0.44,0.13l1.03,0.51l0.34,0.07l0.72-0.11l1.36-0.51l5.16,0.14l0.54,0.24l1.43,1.52l0.81,0.4l1,0.12l3.71-0.05l0.8-0.18l0.66-0.56
		l0.2-0.37l0.44-1.25l0.2-0.33l0.22-0.12l0.64-0.06l1.05-0.35l0.38-0.02l0.36-0.08l0.67-0.49l0.36-0.17l1-0.06l0.32-0.12l0.83-0.59
		l1.91-0.46l0.77,0.02l0.23,0.48l-0.11,0.2l-0.32,0.21l-0.1,0.12l-0.02,0.22l0.18,0.71l0.09,0.8l0.14,0.29l0.31,0.3l0.67,0.34
		l2.45,0.19l0.38-0.11l0.69-0.36l0.38-0.14l0.32-0.07l0.11-0.14l-0.24-0.33l-0.07-0.35l0.29-0.36l1.12-0.76l0.34-0.11l0.35,0.03
		l0.4,0.17l0.36,0.01l0.19-0.15l0.13-0.23l0.2-0.22l0.88-0.32l0.18-0.19L459.23,424.52z"/>
	
		<polygon id="Punjab" fill-rule="evenodd" fill="#FFF3DA" stroke="#999999" stroke-width="0.25" stroke-linecap="round" stroke-linejoin="round" points="
		537.51,261.15 537.03,260.54 536.51,260.11 535.26,259.07 534.64,258.7 533.35,258.39 532.73,258.01 532.05,257.44 531.48,257.21 
		530.88,257.27 530.1,257.59 529.35,257.66 528.09,257.02 527.38,257.07 526.72,257.28 526.02,257.32 525.36,257.1 524.87,256.51 
		524.33,255 524.27,254.56 524.4,254.17 524.61,253.79 524.75,253.42 524.78,252.99 524.65,252.1 524.64,251.63 524.77,251.15 
		525.23,250.23 525.36,249.76 525.29,249.28 525.04,249.07 524.71,249.14 524.39,249.48 524.21,249.9 524.13,250.27 523.99,250.6 
		523.61,250.87 523.25,250.99 522.28,251.15 521.92,251.13 521.62,250.97 521.08,250.42 520.78,250.26 520.42,250.29 519.82,250.66 
		519.48,250.75 519.09,250.68 518.78,250.47 518.54,250.15 518.36,249.74 518.53,249.48 518.55,249.45 512.44,246.27 512.33,246.12 
		512.02,245.59 512.01,245.56 511.95,245.46 511.86,245.35 511.71,245.2 511.4,245.03 511.06,244.94 510.44,244.97 510.18,245.01 
		510,245.06 509.96,245.08 509.64,245.26 509.63,245.26 509.5,245.31 509.2,245.27 508.84,245.06 508.6,244.93 508.42,244.6 
		507.85,244.23 506.76,243.74 506.17,243.34 505.84,242.88 506.26,242.47 506.25,242.23 506.34,242.06 506.43,241.82 506.44,241.56 
		506.33,241.34 506.18,241.21 505.81,240.97 505.76,240.86 505.73,240.71 505.71,240.58 505.7,240.52 505.61,240.52 505.46,240.55 
		505.43,240.57 505.34,240.61 505.33,240.61 505.21,240.61 505.14,240.62 505.09,240.59 505.07,240.39 505.06,240.37 505.12,240.37 
		505.22,240.34 505.25,240.33 505.38,240.26 505.44,240.21 505.42,239.78 505.34,239.35 505.31,238.95 505.39,238.71 505.44,238.56 
		505.49,238.32 505.4,238.1 505.19,237.82 505,237.52 504.95,237.13 505.12,236.85 505.33,236.59 505.51,235.94 505.67,235.83 
		505.67,235.83 505.81,235.79 505.84,235.79 505.94,235.71 505.95,235.5 505.91,235.32 505.85,235.16 505.71,234.44 505.7,234.23 
		505.77,234.08 505.88,234.04 506,233.97 506.07,233.76 506.03,233.41 505.89,233 505.7,232.61 505.5,232.33 505,231.88 
		504.94,231.72 505.04,231.42 505,231.28 505.02,231.07 505.35,230.37 505.44,230.08 505.42,229.66 505.36,229.26 505.22,228.89 
		505,228.57 504.83,227.99 505.11,226.37 505.06,225.63 503.94,223.48 503.77,223.41 503.68,223.32 503.58,223.26 503.46,223.26 
		503.31,223.37 502.96,223.54 502.84,223.56 502.74,223.63 502.63,223.73 502.3,224.3 502.21,224.4 502.09,224.49 501.94,224.51 
		501.83,224.51 501.76,224.48 501.55,224.35 501.45,224.31 501.33,224.32 501.22,224.35 501.12,224.42 501.01,224.54 500.97,224.75 
		501.01,224.87 501.06,224.95 501.08,225.02 501.06,225.09 500.51,225.87 500.4,226.06 500.34,226.21 500.33,226.31 500.31,226.41 
		500.25,226.5 500.16,226.57 499.75,226.76 499.43,226.97 498.86,227.2 498.41,227.58 497.98,227.88 497.11,227.83 496.76,227.97 
		496.92,228.07 498.39,228.75 498.64,228.92 498.9,229.15 499.47,229.79 500.17,230.33 500.32,230.55 500.32,230.8 500.18,231.07 
		499.71,231.59 499.5,231.88 498.82,233.53 498.69,233.71 498.13,234.31 497.92,234.59 497.89,234.65 497.86,234.68 497.79,234.74 
		497.45,234.83 497.07,234.74 496.59,234.49 496.36,234.32 496.22,234.11 496.29,233.86 496.41,233.57 496.44,233.24 496.3,232.83 
		496.11,232.46 495.9,232.16 495.67,231.96 495.3,231.85 495,231.85 494.64,231.94 493.97,232.18 493.34,232.56 493.05,232.8 
		492.66,233.01 492.24,233.09 491.8,233.03 491.42,232.69 491.11,232.26 490.89,231.69 490.98,231.1 491.4,230.57 493.13,229.66 
		493.11,229.39 493.14,229.32 493.16,229.24 493.12,229.19 493,229.17 492.76,229.19 492.64,229.19 492.53,229.15 492.33,229.02 
		492.24,228.99 491.83,229.04 491.7,229.04 491.61,229.01 491.56,228.91 491.53,228.74 491.58,228.39 491.65,228.25 491.76,228.15 
		491.87,228.11 492,228.03 492.08,227.97 492.13,227.9 492.17,227.84 492.19,227.75 492.19,227.67 492.15,227.59 492.01,227.5 
		491.87,227.44 491.75,227.45 491.64,227.5 491.56,227.52 491.47,227.52 491.4,227.5 491.32,227.47 491.25,227.4 491.23,227.32 
		491.32,227.19 491.46,227.09 491.52,227.03 491.55,226.96 491.57,226.87 491.58,226.57 491.57,226.48 491.56,226.36 491.48,226.24 
		491.41,226.19 491.01,226.23 490.68,225.87 490.61,225.77 490.59,225.68 490.6,225.59 490.63,225.51 490.75,225.26 490.74,225.18 
		490.69,225.09 490.6,224.97 490.51,224.88 490.4,224.8 490.32,224.77 490.19,224.82 490.08,224.9 489.7,225.32 489.66,225.39 
		489.63,225.46 489.64,225.53 489.66,225.66 489.66,225.73 489.62,225.78 489.55,225.81 489.35,225.87 489.26,225.94 489.19,226.06 
		489.03,226.38 488.93,226.53 488.86,226.62 488.79,226.69 488.7,226.73 488.49,226.8 488.23,226.85 488.1,226.8 487.96,226.72 
		487.55,226.38 487.46,226.28 487.43,226.19 487.43,226.05 487.46,225.96 487.51,225.87 487.72,225.62 487.85,225.53 487.99,225.45 
		488.07,225.4 488.12,225.33 488.14,225.25 488.09,225.14 487.97,225.05 487.72,224.95 487.42,224.87 486.61,224.77 486.51,224.73 
		486.38,224.6 486.25,224.43 486.08,223.9 485.77,223.19 485.48,223.15 484.72,223.2 484.04,223.4 483.46,223.8 482.87,224.33 
		482.54,224.51 480.83,224.88 480.56,225.02 480.3,225.83 480.58,227.96 480.45,228.81 480.24,228.63 480.02,228.58 479.79,228.64 
		479.57,228.81 479.31,228.65 478.95,228.56 478.26,228.51 477.76,228.28 477.68,228.32 477.31,228.81 477.13,228.92 476.74,229.07 
		476.56,229.25 476.35,229.91 476.25,230.01 476.14,230.19 475.78,231.04 475.69,231.36 475.65,232.5 475.31,233.11 475.3,233.34 
		475.35,233.62 475.3,234.08 475.15,234.31 474.37,234.91 474.28,235.06 474.2,235.36 474.12,235.51 473.96,235.71 473.85,235.9 
		473.83,236.09 473.93,236.34 473.74,236.39 473.66,236.51 473.59,236.66 473.43,236.77 473.27,236.8 472.74,236.77 472.44,236.85 
		471.42,237.38 471.1,237.83 471.08,238.25 471.13,238.63 470.98,238.96 470.76,239.26 470.66,239.64 470.73,239.99 471.06,240.22 
		470.91,240.22 471.16,240.54 471.42,240.8 471.61,241.11 471.67,241.58 471.58,242.02 471.41,242.32 471.22,242.54 471.06,242.77 
		470.91,243.18 470.87,243.54 470.89,244.01 470.68,244.25 469.79,243.87 469.62,243.73 469.43,243.54 469.12,243.13 468.96,242.87 
		468.84,242.62 468.8,242.49 468.77,242.33 468.75,241.67 468.72,241.52 468.67,241.39 468.53,241.22 468.31,241.02 467.84,240.71 
		467.71,240.67 466.98,240.94 466.82,240.94 466.66,240.89 466.16,240.66 466.02,240.55 465.9,240.45 465.84,240.31 465.68,240.19 
		465.53,240.32 465.48,240.5 465.38,240.99 465.41,241.25 465.5,241.43 465.59,241.5 465.64,241.57 465.67,241.64 465.69,241.74 
		465.7,241.83 465.7,241.94 465.7,242.01 465.71,242.09 465.87,242.39 466.03,242.6 466.05,242.7 465.86,243.66 465.87,243.86 
		465.9,243.96 465.96,243.96 466.02,243.96 466.1,243.93 466.17,243.93 466.25,243.96 466.33,244.08 466.39,244.18 466.41,244.29 
		466.41,244.38 466.38,244.54 466.3,244.7 466.07,245.06 465.97,245.17 465.83,245.24 465.6,245.31 465.39,245.31 465.22,245.36 
		464.97,245.49 464.82,245.51 464.67,245.5 464.55,245.52 464.4,245.58 464.19,245.68 464.05,245.65 463.97,245.61 463.92,245.56 
		463.85,245.53 463.63,245.46 463.55,245.42 463.42,245.32 463.36,245.3 463.3,245.3 462.12,245.78 461.94,245.91 461.66,246.06 
		461.44,246.15 461.3,246.25 461.15,246.4 460.7,247.13 460.59,247.42 460.51,247.78 460.38,249.38 460.31,249.71 460.1,249.92 
		459.92,249.99 459.86,250.04 459.81,250.14 459.86,250.35 460.5,251.73 460.58,252.15 460.57,252.58 460.59,252.76 460.78,253.54 
		460.87,254.15 460.94,254.34 461.05,254.47 461.27,254.59 461.41,254.61 461.55,254.62 462.35,254.45 462.43,254.45 462.52,254.47 
		462.59,254.52 462.65,254.65 462.62,255.03 462.36,255.94 462.42,256.24 462.52,256.44 462.62,256.56 462.69,256.62 462.78,256.63 
		462.86,256.59 462.94,256.48 462.98,256.4 463.05,256.24 463.1,256.16 463.16,256.11 463.26,256.08 463.34,256.05 463.39,256 
		463.42,255.95 463.44,255.89 463.51,255.74 463.58,255.68 463.67,255.65 463.82,255.66 463.96,255.72 464.02,255.8 464.04,255.91 
		464.05,256.06 464.08,256.14 464.15,256.19 464.26,256.44 464.21,257.94 464.1,258.31 463.93,258.66 463.24,259.59 463.05,259.94 
		462.96,260.32 462.96,260.76 462.92,260.97 462.84,261.18 462.47,261.79 462.39,262.03 462.19,262.93 462.05,263.36 461.81,263.71 
		461.65,263.84 461.12,264.11 460.94,264.25 460.29,265 460.13,265.26 460.01,265.54 459.96,265.85 459.96,266.26 459.92,266.45 
		459.82,266.63 459.15,267.31 458.87,267.67 458.54,268.58 458.29,268.89 458,269.17 457.74,269.49 457.56,269.89 457.39,270.77 
		457.26,271.19 456.47,272.79 456.14,273.29 456.02,273.54 456.02,273.86 456.11,274.21 456.12,274.33 456.1,274.53 455.2,276.92 
		455.37,277.27 455.46,277.41 455.69,277.69 455.76,277.8 455.76,277.89 455.67,277.95 455.53,278.01 455.45,278.11 455.42,278.26 
		455.59,278.75 455.6,278.88 455.55,279.41 455.5,279.67 455.43,279.77 455.32,279.89 455.08,280.03 454.8,280.12 454.71,280.21 
		454.66,280.29 454.5,280.95 454.57,281.13 454.58,281.22 454.56,281.34 454.49,281.47 454.07,281.91 453.8,282.46 453.45,282.29 
		453.31,282.18 453.1,281.95 453.01,281.88 452.91,281.84 452.79,281.82 452.64,281.84 452.39,281.9 451.57,282.25 451.4,282.28 
		451.14,282.23 450.95,282.18 450.34,281.88 450,281.79 449.81,281.81 449.61,281.88 449.18,282.24 449.03,282.33 448.89,282.38 
		448.61,282.42 448.46,282.43 448.17,282.38 448.02,282.42 447.87,282.53 447.65,282.82 447.55,282.99 447.5,283.12 447.46,283.26 
		447.41,283.36 447.38,283.4 447.2,283.51 446.89,283.47 447.04,284.41 446.96,284.65 446.86,284.68 446.07,284.73 445.95,284.75 
		445.79,284.8 445.37,285.01 445.05,285.1 444.4,285.44 444.3,285.55 444.26,285.66 444.26,285.75 444.3,286.09 444.43,286.52 
		444.44,286.7 444.44,286.85 444.41,286.95 444.26,287.28 444.16,287.35 444.06,287.33 444.01,287.3 443.94,287.2 443.7,291.43 
		443.9,292.04 443.94,292.34 443.91,292.55 443.81,292.68 443.7,292.72 443.37,292.75 443.26,292.8 441.75,294.88 441.68,294.93 
		441.59,294.95 441.15,294.98 441.03,295.03 440.9,295.2 440.77,295.5 440.64,296.09 440.61,296.37 440.61,296.55 440.65,296.64 
		440.84,296.97 440.88,297.08 440.91,297.22 440.86,297.42 440.76,297.67 439.18,300.37 438.97,300.94 438.82,302.09 438.47,303.39 
		438.34,303.68 438.28,303.86 438.28,304 438.35,304.12 438.44,304.18 438.64,304.26 438.71,304.32 438.75,304.39 438.77,304.49 
		438.76,304.93 438.77,305.08 438.79,305.15 438.82,305.22 438.86,305.28 438.92,305.3 438.99,305.28 439.05,305.22 439.22,304.9 
		439.28,304.83 439.35,304.76 439.41,304.71 439.54,304.64 439.6,304.62 439.68,304.61 439.87,304.61 440.09,304.65 440.19,304.68 
		440.28,304.74 440.35,304.85 440.33,305.12 440.23,305.52 439.75,306.45 439.64,306.61 439.42,306.79 439.15,307.07 439.06,307.24 
		438.97,307.48 438.89,307.88 438.87,308.09 438.87,308.6 438.62,309.39 437.66,311.39 436.78,313.63 436.61,313.96 436.44,314.16 
		436.1,314.44 435.64,314.74 435.55,314.85 434.96,315.79 434.57,316.13 433.46,316.32 433.12,316.45 432.8,316.6 432.72,316.66 
		432.64,316.72 432.55,316.84 432.33,317.2 432.25,317.44 432.19,317.72 432.19,318.33 432.24,319.02 431.69,321.61 431.7,321.86 
		431.75,321.98 431.81,322.06 431.9,322.1 432,322.13 432.78,322.21 432.98,322.27 433.07,322.31 433.21,322.42 433.34,322.54 
		433.39,322.61 433.43,322.69 433.47,322.79 433.49,323.01 433.48,323.31 433.41,323.84 433.42,324.08 433.45,324.24 433.83,324.82 
		433.89,324.88 433.95,324.92 434.03,324.92 434.09,324.88 434.15,324.83 434.27,324.7 434.39,324.58 434.47,324.53 434.54,324.49 
		434.63,324.46 434.72,324.45 434.8,324.48 434.87,324.57 434.89,324.79 434.86,325.14 434.21,328.29 434,328.7 433.87,328.87 
		433.76,328.95 433.52,329.07 433.38,329.17 433.25,329.29 433.01,329.55 432.11,331.02 431.71,331.51 431.45,331.74 430.95,332.11 
		430.88,332.18 430.79,332.3 430.69,332.54 430.57,332.9 430.47,333.43 430.45,333.69 430.46,333.86 430.48,333.93 430.51,333.98 
		430.54,334.04 430.65,334.16 430.85,334.34 430.91,334.41 430.95,334.52 430.98,334.66 430.9,335.04 429.89,337.42 429.47,338.13 
		428.99,338.76 428.86,338.87 428.72,338.98 428.41,339.14 427.71,339.4 427.62,339.46 427.51,339.55 427.41,339.69 427.35,339.83 
		427.32,340 427.33,340.12 427.36,340.22 428.32,341.72 430.26,340.88 430.51,340.85 430.97,340.86 431.47,340.93 431.94,341.07 
		432.05,341.12 432.13,341.19 432.19,341.26 432.22,341.36 432.23,341.44 432.23,341.59 432.26,341.67 432.32,341.74 432.42,341.78 
		434.15,342 434.67,342.15 435.07,343.04 435.36,343.31 435.51,343.36 435.67,343.45 435.9,343.62 436.02,343.82 436.1,343.99 
		436.12,344.14 436.12,344.84 436.15,345.01 436.24,345.17 436.4,345.39 436.49,345.56 436.53,345.72 436.59,346.11 437.73,349.52 
		438.01,350.1 439.15,351.79 439.49,352.15 439.79,352.39 440.92,353.08 443.02,354.07 443.02,354.07 443.21,353.88 444.46,352.96 
		445.49,351.82 445.82,351.59 446.14,351.49 446.85,351.38 447.56,351.1 447.91,351 448.3,351.06 448.84,351.23 449.35,351.5 
		449.81,351.86 450.41,352.56 450.93,352.99 451.15,353.24 451.3,353.67 451.23,354.43 451.29,354.84 451.86,356.15 452.56,357.19 
		453.5,357.83 454.78,358.01 456.28,357.67 458.37,356.63 460.62,355.51 462,355.03 463.56,354.69 465.14,354.55 466.59,354.68 
		468.12,354.55 470.69,353.76 473.61,352.86 473.86,352.66 473.96,352.35 474.17,349.82 474.27,349.43 474.48,349.02 475.94,347.1 
		478.19,345.24 478.9,344.49 479.41,343.59 479.78,342.59 480.85,338.41 481.29,337.54 482.65,335.87 483.15,335.52 485.78,334.15 
		488.21,332.87 490.29,331.78 492.65,330.54 492.96,330.32 493.18,330.01 493.78,328.56 494.25,327.77 495.39,326.23 496.81,323.46 
		497.71,321.71 498.72,319.75 499.66,316.66 500.45,314.1 501.23,311.52 501.5,311.2 504.66,309.72 507.99,308.96 508.69,308.56 
		511.73,306 511.78,305.67 511.82,305.39 511.56,304.46 511.14,303.56 510.77,303.01 509.87,302.52 509.92,302.43 510.04,302.1 
		510.33,301.78 510.7,301.59 511.03,301.63 511,301.49 510.96,301.19 510.92,301.05 511.23,301.15 511.46,301.11 511.64,300.97 
		512.57,299.65 512.68,299.38 512.83,299.21 513.56,299 513.8,298.73 513.88,298.21 513.82,297.81 513.8,297.45 513.99,297.05 
		514.26,296.72 514.51,296.48 514.79,296.29 515.18,296.09 515.6,296 515.75,295.89 515.8,295.59 515.86,295.42 516.13,295.21 
		516.25,294.78 516.39,294.61 516.69,294.35 517.06,293.78 517.22,293.63 517.49,293.42 517.63,293.26 517.61,293.11 517.45,292.69 
		517.51,292.6 517.87,292.49 518.24,292.2 518.45,291.82 518.31,291.44 518.44,291.22 518.59,291.02 518.78,290.89 519.02,290.84 
		519.22,290.86 519.7,291 520.09,291.03 520.24,290.86 520.31,290.56 520.52,290.2 520.83,289.9 521.14,289.75 521.48,289.69 
		521.89,289.68 522.25,289.55 522.54,289.26 522.79,288.92 523.07,288.66 523.08,288.22 523.35,287.84 523.75,287.54 524.81,286.96 
		524.65,286.76 524.31,286.45 524.04,286.29 523.67,286.28 522.87,286.42 522.57,286.29 522.33,285.99 522.17,285.72 522.08,285.42 
		522.02,285 522.07,284.57 522.36,283.72 522.36,282.76 522.49,282.27 523.21,280.43 523.43,280.05 523.73,279.68 523.95,279.33 
		524.04,278.93 524,278.53 523.45,277.67 522.92,275.64 521.89,273.76 521.71,273.51 521.77,273.44 521.96,273.1 522,273.07 
		522.14,273 522.2,272.95 522.23,272.85 522.29,272.6 522.32,272.5 522.46,272.29 522.54,272.22 522.58,272.12 522.58,271.84 
		522.65,271.37 522.82,271.02 523.1,270.73 524.48,269.65 524.78,269.54 525.01,269.36 525.53,268.36 526.71,268.61 527.09,268.52 
		527.43,267.96 527.6,267.21 527.91,266.74 528.73,267.04 529.02,266.67 529.38,266.6 529.79,266.65 530.24,266.6 530.46,266.47 
		530.57,266.32 530.65,266.14 530.79,265.93 530.97,265.84 531.42,265.87 531.6,265.86 531.46,265.25 531.79,265.18 532.92,265.61 
		533.07,265.62 533.22,265.54 533.42,265.34 533.58,265.27 534,265.39 534.23,265.42 534.22,264.92 534.63,264.51 535.19,264.22 
		535.62,264.08 535.87,264.03 536.44,264.08 536.5,263.84 536.69,263.1 536.84,262.74 537.43,262.06 537.62,261.64 	"/>
	
		<polygon id="Khyber_Pakhtunkhwa" fill-rule="evenodd" fill="#EBEDC3" stroke="#999999" stroke-width="0.25" stroke-linecap="round" stroke-linejoin="round" points="
		515.03,199.23 515.03,199.23 515.03,199.23 515.03,199.11 515.03,199.11 515.03,199.11 515,199.05 514.93,198.97 514.68,198.74 
		514.62,198.63 514.61,198.53 514.64,198.44 514.65,198.37 514.62,198.32 514.62,198.31 514.59,198.3 514.55,198.28 514.54,198.28 
		514.53,198.28 514.2,198.29 514.2,198.29 513.7,198.24 513.43,198.21 513.43,198.21 513.41,198.2 513.33,198.17 513.22,198.11 
		512.91,197.8 512.87,197.76 512.87,197.76 512.82,197.69 512.8,197.62 512.73,197.57 512.66,197.55 512.65,197.55 512.61,197.53 
		512.61,197.54 512.33,197.56 512.17,197.6 512.03,197.67 512,197.66 511.99,197.66 511.98,197.66 511.91,197.64 511.82,197.6 
		511.37,197.01 511.2,196.94 511.11,196.91 510.89,196.83 510.88,196.83 510.7,196.8 510.37,196.92 510.27,196.93 510.27,196.93 
		510.27,196.93 510.25,196.92 510.17,196.88 509.81,196.49 509.48,196.31 509.33,196.25 509.27,196.23 509.27,196.23 509.25,196.23 
		509.11,196.2 508.66,196.2 508.6,196.21 508.54,196.24 508.48,196.28 508.1,196.67 508.03,196.73 507.97,196.76 507.92,196.77 
		507.85,196.77 507.85,196.77 507.84,196.76 507.77,196.72 507.67,196.63 507.55,196.42 507.53,196.31 507.54,196.22 507.58,196.1 
		507.63,195.76 507.63,195.66 507.6,195.55 507.06,194.59 507.03,194.51 507.03,194.44 507.03,194.34 507.09,193.73 507.09,193.65 
		507.08,193.52 507.08,193.45 507.11,193.37 507.16,193.25 507.58,192.54 507.68,192.31 507.71,192.22 507.74,192.16 507.77,192.1 
		508.04,191.87 508.5,191.61 508.67,191.54 508.75,191.49 508.8,191.44 508.81,191.38 508.8,191.31 508.77,191.22 508.76,191.13 
		508.7,190.2 508.69,190.12 508.58,189.76 508.58,189.76 508.57,189.75 508.33,189.64 508.32,189.64 505.97,189.29 504.81,189.31 
		503.69,189.49 503.68,189.48 503.67,189.47 502.98,188.96 502.97,188.96 502.97,188.96 502.94,188.95 502.55,188.86 501.95,189.18 
		501.95,189.17 501.95,189.17 501.94,189.15 501.71,188.68 501.68,188.57 501.63,188.45 501.56,188.36 501.45,188.27 501.45,188.26 
		501.3,188.18 501.29,188.17 501.15,188.12 501.15,188.11 500.95,188.07 500.84,188.07 500.48,188.11 500.4,188.1 500.14,188.03 
		500.12,188.02 500.07,188 500.07,187.99 500.07,187.99 500.02,187.95 499.93,187.71 499.89,187.62 499.77,187.49 499.76,187.48 
		499.62,187.38 499.06,186.99 498.91,186.86 498.85,186.78 498.62,186.57 496.93,185.41 496.82,185.29 496.75,185.19 496.72,185.07 
		496.71,184.92 496.71,184.75 496.81,183.58 496.83,183.51 496.88,183.44 497.22,183.1 497.27,183.02 497.29,182.94 497.25,182.86 
		497.19,182.78 497.18,182.77 496.82,182.53 496.65,182.41 496.64,182.41 496.63,182.4 496.44,182.23 496.18,181.95 496.14,181.89 
		496.11,181.82 496.07,181.78 496.07,181.78 496.06,181.78 496.03,181.77 496.02,181.77 495.93,181.84 495.78,182.03 495.7,182.11 
		495.63,182.15 495.54,182.19 495.42,182.22 495.23,182.23 495.03,182.21 494.76,182.12 494.74,182.11 494.62,182.05 494.59,182.03 
		494.46,181.95 494.46,181.94 494.19,181.81 494.13,181.79 494.05,181.75 493.94,181.73 492.12,181.82 491.98,181.85 491.82,181.91 
		491.13,182.34 491.06,182.41 490.96,182.56 490.91,182.62 490.77,182.65 490.66,182.65 489.88,182.48 488.16,182.27 488.12,182.26 
		486.35,181.48 485.59,181.15 485.59,181.15 486.92,178.69 486.94,178.61 486.92,178.56 486.78,178.19 486.76,178.01 486.64,177.85 
		486.06,177.34 486,177.25 485.97,177.18 485.95,177.1 485.88,176.92 485.84,176.77 485.84,176.66 485.86,176.53 485.89,176.44 
		485.94,176.34 486.41,175.72 486.44,175.58 486.41,175.45 486.28,175.21 486.25,175.13 486.25,175.05 486.29,174.7 486.49,173.77 
		486.55,173.62 486.62,173.48 486.73,173.32 486.88,173.14 487.03,172.99 487.27,172.8 487.54,172.71 487.75,172.67 487.92,172.66 
		488.13,172.68 488.62,172.88 488.73,172.88 488.83,172.84 489.22,172.27 489.31,172.18 489.66,171.93 489.93,171.81 490.2,171.73 
		490.32,171.67 490.51,171.53 491.19,170.71 491.35,170.58 491.5,170.5 492.06,170.37 492.2,170.27 492.33,170.09 492.38,169.98 
		492.39,169.86 492.37,169.59 492.37,169.03 492.41,168.72 492.44,168.61 492.55,168.51 492.74,168.42 493.1,168.36 493.65,168.36 
		494.1,168.3 494.18,168.26 494.24,168.18 494.26,168 494.25,167.88 494.18,167.74 494.12,167.63 494.09,167.54 494.09,167.46 
		494.14,167.38 494.26,167.31 495.23,166.93 495.35,166.84 495.46,166.73 495.61,166.52 495.67,166.36 495.72,166.07 495.78,165.96 
		496.02,165.58 496.18,165.28 496.2,165.21 496.2,165.14 496.16,164.95 495.87,164.19 495.8,163.91 495.78,163.4 495.76,163.28 
		495.76,163.19 495.8,163.11 495.88,163.06 496.23,163.01 496.84,162.86 497.05,162.76 497.59,162.32 497.69,162.28 497.79,162.3 
		497.79,162.3 497.97,162.43 498.26,162.72 498.27,162.73 498.36,162.78 498.44,162.79 498.9,162.7 499.41,162.66 499.72,162.68 
		499.88,162.68 500.2,162.6 502.07,161.89 502.32,161.91 502.76,162 503.86,162.36 503.97,162.38 504.36,162.33 504.58,162.34 
		504.66,162.36 504.8,162.44 504.9,162.44 505.01,162.41 505.26,162.28 505.34,162.27 505.34,162.27 505.42,162.33 505.57,162.58 
		505.68,162.72 505.75,162.79 505.76,162.8 505.84,162.85 505.95,162.85 506.44,162.84 506.57,162.87 506.78,162.97 506.87,162.99 
		506.97,162.97 507.18,162.84 507.54,162.51 507.65,162.46 507.78,162.47 507.93,162.52 508.29,162.7 508.39,162.71 508.5,162.68 
		508.86,162.43 508.93,162.41 509.13,162.43 509.7,162.59 510.08,162.74 510.45,162.83 510.54,162.81 510.66,162.75 510.7,162.62 
		510.7,162.49 510.68,162.39 510.67,162.3 510.69,162.21 510.77,162.01 510.78,161.9 510.76,161.8 510.76,161.79 510.72,161.61 
		510.69,161.47 510.69,161.47 510.68,161.46 510.57,161.33 510.35,161.14 510.34,161.12 509.33,160.44 509.32,160.42 509.07,160.15 
		509.05,160.14 508.83,160.01 508.63,159.92 507.95,159.8 507.82,159.75 507.72,159.69 507.68,159.66 507.63,159.62 507.53,159.5 
		507.48,159.4 507.48,159.39 507.47,159.38 507.43,159.11 507.48,158.66 507.48,158.64 507.47,158.64 507.47,158.64 507.44,158.64 
		506.17,158.58 503.77,158.99 503.18,158.9 502.61,158.82 501.4,158.98 500.53,158.92 499.61,159.24 499.35,159.27 499.08,159.24 
		498.54,159.09 497.97,159.03 495.23,159.32 494.94,159.43 494.5,159.74 494.28,159.84 494.03,159.83 493.46,159.6 493.01,159.71 
		492.57,159.95 492.03,160.1 490.42,160.18 488.89,159.95 487.68,160.04 486.5,160.32 485.61,160.78 484.47,161.75 484.08,161.86 
		483.25,161.8 482.49,162.05 481.68,162.1 480.07,162.47 479.26,162.82 478.97,163.03 478.9,163.32 479.17,163.76 479.3,164.14 
		478.98,164.32 477.92,164.47 477.46,164.62 477.24,164.74 477.08,164.93 477.11,165.12 477.19,165.31 477.16,165.52 476.87,165.8 
		476.12,165.99 475.74,166.2 475.44,166.51 474.58,167.01 474.32,167.22 474.1,167.45 473.87,167.66 473.57,167.77 472.39,167.85 
		472.01,168.09 472.03,168.81 472.34,169.43 472.4,169.74 472.18,169.99 471.89,170.1 471.6,170.11 471.33,170 470.8,169.42 
		469.74,168.71 469.37,168.56 469.03,168.59 468.85,168.79 468.63,169.49 468.48,169.86 468.33,170.1 467.87,170.55 467.78,170.9 
		467.97,171.25 468.08,171.55 467.72,171.74 467.28,171.84 466.93,171.96 466.63,172.17 465.23,173.74 464.86,174.03 463.7,174.44 
		463.61,174.59 463.52,175.07 463.39,175.28 463.22,175.4 462.66,175.67 461.94,176.14 461.85,176.31 461.75,176.79 461.66,177 
		461.07,177.6 460.9,177.95 460.97,178.28 460.99,178.37 461.19,178.55 461.85,178.92 462.11,179.12 462.57,179.62 463.06,179.83 
		463.58,179.94 464.11,180.17 464.38,180.49 464.46,181.23 464.66,181.57 465.49,182.17 465.75,182.51 466.36,183.62 466.48,183.95 
		466.5,184.17 466.48,184.37 466.48,184.57 466.56,184.83 466.67,184.98 466.94,185.2 467.06,185.32 467.29,185.72 467.37,186.12 
		467.27,186.53 466.94,186.95 466.71,187.4 466.88,187.79 467.24,188.09 468.25,188.58 468.55,188.81 468.72,189.14 468.71,189.57 
		468.58,189.98 468.51,190.41 468.62,190.91 468.72,191.06 468.85,191.25 469.1,191.53 469.25,191.83 469.22,192.27 469.04,192.6 
		468.15,193.38 467.59,194.11 467.56,194.72 467.88,195.29 468.9,196.46 469.46,196.91 469.53,197.21 469.37,197.65 468.92,198.37 
		467.65,199.25 467.17,199.84 467.15,200.82 467.25,201.05 467.22,201.26 467.09,201.44 466.89,201.58 466.89,201.58 466.89,201.58 
		466.89,201.59 466.74,201.82 466.58,202.34 466.45,202.58 466.28,202.73 466.01,202.84 466.06,202.9 466.32,203.37 466.94,204.15 
		466.98,204.19 467.34,204.39 467.74,204.47 467.93,204.55 468.06,204.56 468.09,204.57 468.11,204.61 468.14,204.67 468.17,204.88 
		468.18,204.89 468.2,204.94 468.25,205.03 468.27,205.07 468.29,205.13 468.3,205.17 468.3,205.28 468.31,205.31 468.32,205.33 
		468.36,205.44 468.42,205.55 468.47,205.75 468.47,205.77 468.47,205.86 468.46,205.98 468.46,206.03 468.5,206.09 468.82,206.39 
		469.06,206.51 469.21,206.55 469.34,206.52 470.12,206.08 470.4,205.99 470.51,205.96 470.62,205.95 471.27,206.06 471.39,206.1 
		471.52,206.16 471.76,206.24 471.86,206.25 471.94,206.25 472.05,206.23 472.12,206.26 472.2,206.34 472.29,206.57 472.36,206.68 
		472.48,206.84 472.46,206.9 472.36,206.96 472.26,206.98 472.18,207.04 472,207.31 471.95,207.37 471.89,207.39 471.77,207.41 
		471.71,207.45 471.68,207.5 471.72,207.62 471.75,207.68 471.77,207.73 471.78,207.74 471.79,207.76 471.81,207.9 471.83,208.09 
		471.83,208.35 471.72,209.03 471.32,209.34 471.27,209.33 471.25,209.33 471.22,209.31 471.13,209.24 471.11,209.23 471.09,209.23 
		471.08,209.23 471.06,209.23 470.92,209.36 470.87,209.4 470.6,209.7 470.49,209.8 470.45,209.81 470.43,209.82 470.41,209.83 
		470.4,209.84 470.35,209.88 470.29,209.9 470.24,210 470.18,210.19 470.01,210.89 470,211.03 470.02,211.25 469.94,211.36 
		469.58,211.77 469.84,212.64 469.84,212.66 469.82,212.72 469.82,212.74 469.9,212.97 469.92,213.07 469.92,213.1 469.9,213.21 
		469.89,213.24 469.89,213.27 469.9,213.3 469.91,213.36 469.94,213.38 469.99,213.4 470.12,213.42 470.18,213.43 470.22,213.42 
		470.26,213.4 470.27,213.4 470.28,213.4 470.3,213.4 470.37,213.5 470.53,213.97 470.38,214.02 470.31,214.07 470.25,214.12 
		470.22,214.14 470.2,214.16 470.12,214.18 470.1,214.19 470.07,214.21 469.94,214.34 469.91,214.37 469.88,214.41 469.87,214.45 
		469.84,214.66 469.8,214.72 469.8,214.75 469.8,214.78 469.8,214.81 469.81,214.83 469.82,214.85 469.86,214.9 469.87,214.92 
		469.88,214.94 469.85,214.97 469.8,215.01 469.66,215.09 469.6,215.12 469.54,215.14 469.44,215.13 469.4,215.13 469.28,215.17 
		469.27,215.2 469.26,215.25 469.23,215.45 469.22,215.49 469.22,215.51 469.21,215.54 469.24,215.7 469.24,215.77 469.24,215.81 
		469.22,215.83 469.18,215.83 469.11,215.81 469.06,215.79 469.03,215.77 469.01,215.76 468.94,215.67 468.87,215.61 468.84,215.59 
		468.82,215.59 468.8,215.59 468.75,215.58 468.72,215.58 468.65,215.54 468.63,215.54 468.61,215.54 468.59,215.55 468.36,215.83 
		468.22,215.95 468.18,215.97 468.13,216.01 468.11,216.03 468.09,216.07 468.08,216.12 468.08,216.22 468.08,216.27 468.06,216.32 
		468,216.39 467.66,216.69 467.62,216.73 467.62,216.76 467.62,216.8 467.64,216.89 467.66,216.93 467.68,216.97 467.69,216.98 
		467.69,217 467.58,217.36 467.57,217.41 467.58,217.43 467.6,217.45 467.62,217.46 467.64,217.47 467.67,217.49 467.68,217.49 
		467.69,217.51 467.7,217.53 467.7,217.56 467.7,217.59 467.64,217.81 467.57,217.89 467.04,218.33 466.88,218.64 466.29,219.12 
		466.18,219.19 466.14,219.22 466.13,219.24 465.82,219.45 465.72,219.55 465.72,219.57 465.72,219.58 465.68,219.64 465.63,219.69 
		464.23,220.08 464.16,220.16 464.12,220.22 464.11,220.24 464.11,220.26 464.11,220.3 464.13,220.4 464.13,220.43 464.13,220.46 
		464.13,220.48 464.09,220.61 464.1,220.63 464.12,220.67 464.21,220.73 464.27,220.76 464.32,220.78 464.37,220.79 464.46,220.82 
		464.51,220.84 464.66,220.97 464.75,221.02 464.78,221.08 464.79,221.17 464.81,221.39 464.8,221.49 464.78,221.56 464.76,221.58 
		464.7,221.63 464.63,221.69 464.59,221.74 464.58,221.76 464.57,221.79 464.56,221.89 464.57,221.93 464.8,222.23 464.83,222.31 
		464.91,222.76 464.93,222.98 464.89,223.12 464.8,223.31 464.78,223.36 464.77,223.41 464.76,223.61 464.76,223.64 464.75,223.84 
		464.76,223.95 464.8,224.11 464.93,224.4 465.05,224.52 465.21,224.64 465.35,224.8 465.49,224.99 465.63,225.28 465.72,225.77 
		465.73,225.9 465.67,226.35 465.67,226.41 465.68,226.48 465.71,226.56 465.77,226.65 466.02,226.87 466.7,227.37 466.89,227.55 
		466.94,227.63 466.99,227.71 467.02,227.81 467.02,227.93 466.99,228.31 467,228.48 467.02,228.6 467.17,229.2 467.28,229.43 
		467.33,229.51 467.39,229.55 467.47,229.58 467.58,229.6 467.79,229.62 467.96,229.62 468.8,229.46 469.84,228.92 470.41,228.51 
		470.66,228.26 471.02,227.6 471.11,227.34 471.2,227.18 471.26,227.14 471.33,227.11 471.41,227.17 471.51,227.29 471.67,227.77 
		471.74,227.93 471.84,228.05 472.05,228.24 472.19,228.31 472.32,228.36 472.92,228.47 473.4,228.48 473.47,228.51 473.52,228.57 
		473.57,228.7 473.59,228.79 473.53,228.97 473.47,229.09 472.9,229.92 472.81,230.1 472.71,230.26 472.32,230.72 472.28,230.8 
		472.25,230.87 472.26,230.94 472.28,230.99 472.34,231.04 472.97,231.47 473.16,231.63 473.2,231.68 473.23,231.74 473.22,231.81 
		473.19,231.88 473.15,231.95 473.08,232.01 473,232.06 472.83,232.14 472.19,232.36 471.98,232.47 471.74,232.66 470.69,233.3 
		470.19,233.52 469.8,233.57 469.05,233.48 468.62,233.32 468.45,233.23 468.32,233.15 468.2,233 468.19,232.93 468.21,232.85 
		468.27,232.76 468.36,232.68 468.57,232.59 469.2,232.38 469.38,232.29 469.55,232.17 469.63,232.1 469.68,232.02 469.71,231.94 
		469.71,231.85 469.69,231.76 469.65,231.66 469.62,231.59 469.56,231.53 469.5,231.48 469.41,231.45 469.28,231.45 469.07,231.51 
		468.89,231.58 466.55,231.41 466.29,231.35 466.18,231.35 466.06,231.35 465.65,231.46 464.87,231.52 464.68,231.58 464.53,231.66 
		464.4,231.8 464.3,231.83 464.18,231.82 463.96,231.72 463.84,231.64 463.7,231.48 463.39,231.28 462.51,230.82 462.08,230.52 
		461.78,230.21 461.75,230.15 461.66,229.89 461.6,229.81 461.54,229.75 461.45,229.73 461.36,229.72 461.24,229.73 461.16,229.7 
		460.88,229.49 460.74,229.42 460.42,229.32 460.34,229.32 460.26,229.35 460.23,229.46 460.22,230.36 460.24,230.48 460.5,231.09 
		460.51,231.35 459.84,231.61 459.61,231.74 459.55,231.8 459.44,231.92 459.41,231.98 459.39,232.05 459.4,232.11 459.42,232.18 
		459.47,232.22 459.54,232.26 459.62,232.29 459.71,232.34 459.78,232.39 459.81,232.47 459.79,232.53 459.69,232.59 458.98,232.77 
		458.75,232.85 458.62,232.93 458.45,233.09 458.25,233.24 457.86,233.41 457.72,233.43 454.79,233.14 454.49,233.03 453.88,232.62 
		453.56,232.66 453.46,232.74 453.36,232.88 453.1,233.51 453.02,233.83 453.01,233.9 453.01,233.98 453.01,234.05 453.05,234.27 
		453.07,234.46 453.06,234.55 453,234.67 452.93,234.75 452.79,234.79 452.69,234.78 452.6,234.79 452.09,235 451.76,235.05 
		451.36,235.07 451.29,235.08 451.22,235.11 451.08,235.23 450.56,235.83 450.38,235.97 450.28,236.01 450.19,236.03 450.08,236.04 
		449.82,236.03 449.61,236.04 449.41,236.09 449.15,236.12 448.86,236.19 448.75,236.24 448.5,236.41 448.45,236.5 448.42,236.56 
		448.4,236.65 448.37,236.81 448.36,236.88 448.4,236.98 448.49,237.09 448.72,237.29 449.33,237.66 449.53,237.73 449.65,237.94 
		449.81,238.75 450.26,239.4 450.53,239.53 450.68,239.58 450.84,239.61 451.05,239.61 451.15,239.63 451.74,239.86 451.84,239.88 
		452.06,239.89 452.18,239.92 452.26,239.95 452.3,239.99 452.19,240.35 452.19,240.41 452.2,240.48 452.22,240.53 452.28,240.57 
		452.48,240.62 453.06,240.69 453.47,240.68 453.54,240.69 453.77,240.76 453.84,240.78 454.02,240.76 454.12,240.77 454.22,240.8 
		454.47,240.9 454.83,240.98 455.28,241.14 455.37,241.2 455.45,241.29 455.5,241.38 455.52,241.48 455.5,241.61 455.22,242.05 
		454.05,243.37 453.62,243.47 453.47,243.54 453.34,243.64 453.05,244.01 452.9,244.15 452.67,244.27 452.5,244.32 452.08,244.4 
		451.72,244.53 451.44,244.59 451.33,244.63 451.14,244.67 451.06,244.67 450.98,244.66 450.89,244.66 450.5,244.6 450.34,244.62 
		450.25,244.62 450.14,244.61 449.69,244.46 449.61,244.47 449.5,244.51 449.23,244.72 448.99,244.97 448.86,245.05 448.69,245.12 
		448.63,245.19 448.21,246.63 448.11,246.87 447.6,247.57 447.05,248.63 446.88,248.89 446.76,249.03 446.69,249.02 446.63,249.03 
		446.55,249.05 446.49,249.19 446.46,249.31 446.46,250.36 446.52,250.99 446.5,251.13 446.49,251.27 446.42,251.62 446.43,251.68 
		446.48,251.71 446.65,251.74 446.74,251.77 447.02,252.22 450.15,256.19 450.3,256.61 450.34,256.76 450.34,256.84 450.32,256.93 
		450.24,257.01 450.05,257.13 449.93,257.14 449.82,257.12 448.6,256.41 448.44,256.36 448.31,256.35 448.25,256.35 448.19,256.36 
		448.12,256.38 448.05,256.43 447.96,256.56 447.83,256.82 447.66,257.31 447.57,257.64 447.48,257.88 447.37,258.09 446.97,258.57 
		446.37,259.08 446.29,259.17 445.92,259.8 445.82,259.91 445.35,260.33 444.94,260.6 444.75,260.69 444.68,260.71 444.6,260.73 
		444.51,260.73 444.42,260.71 444.2,260.64 444.13,260.63 443.56,260.69 443.49,260.7 443.43,260.73 443.32,260.8 443.22,260.88 
		443.12,260.99 442.92,261.44 442.7,261.77 442.56,261.94 442.47,262.02 441.76,262.49 441.33,262.86 441.14,263.06 440.92,263.37 
		440.87,263.54 440.81,263.87 440.81,263.94 440.82,264 440.87,264.1 441.38,264.88 441.66,265.62 441.82,266.41 442.01,266.8 
		442.73,267.42 443.43,269.76 443.46,269.97 443.49,270.56 443.49,270.72 443.43,271.05 443.37,271.32 443.36,271.4 443.54,272.64 
		443.6,272.76 443.88,273.24 446.89,283.47 447.2,283.51 447.38,283.4 447.41,283.36 447.46,283.26 447.5,283.12 447.55,282.99 
		447.65,282.82 447.87,282.53 448.02,282.42 448.17,282.38 448.46,282.43 448.61,282.42 448.89,282.38 449.03,282.33 449.18,282.24 
		449.61,281.88 449.81,281.81 450,281.79 450.34,281.88 450.95,282.18 451.14,282.23 451.4,282.28 451.57,282.25 452.39,281.9 
		452.64,281.84 452.79,281.82 452.91,281.84 453.01,281.88 453.1,281.95 453.31,282.18 453.45,282.29 453.8,282.46 454.07,281.91 
		454.49,281.47 454.56,281.34 454.58,281.22 454.57,281.13 454.5,280.95 454.66,280.29 454.71,280.21 454.8,280.12 455.08,280.03 
		455.32,279.89 455.43,279.77 455.5,279.67 455.55,279.41 455.6,278.88 455.59,278.75 455.42,278.26 455.45,278.11 455.53,278.01 
		455.67,277.95 455.76,277.89 455.76,277.8 455.69,277.69 455.46,277.41 455.37,277.27 455.2,276.92 456.1,274.53 456.12,274.33 
		456.11,274.21 456.02,273.86 456.02,273.54 456.14,273.29 456.47,272.79 457.26,271.19 457.39,270.77 457.56,269.89 457.74,269.49 
		458,269.17 458.29,268.89 458.54,268.58 458.87,267.67 459.15,267.31 459.82,266.63 459.92,266.45 459.96,266.26 459.96,265.85 
		460.01,265.54 460.13,265.26 460.29,265 460.94,264.25 461.12,264.11 461.65,263.84 461.81,263.71 462.05,263.36 462.19,262.93 
		462.39,262.03 462.47,261.79 462.84,261.18 462.92,260.97 462.96,260.76 462.96,260.32 463.05,259.94 463.24,259.59 463.93,258.66 
		464.1,258.31 464.21,257.94 464.26,256.44 464.15,256.19 464.08,256.14 464.05,256.06 464.04,255.91 464.02,255.8 463.96,255.72 
		463.82,255.66 463.67,255.65 463.58,255.68 463.51,255.74 463.44,255.89 463.42,255.95 463.39,256 463.34,256.05 463.26,256.08 
		463.16,256.11 463.1,256.16 463.05,256.24 462.98,256.4 462.94,256.48 462.86,256.59 462.78,256.63 462.69,256.62 462.62,256.56 
		462.52,256.44 462.42,256.24 462.36,255.94 462.62,255.03 462.65,254.65 462.59,254.52 462.52,254.47 462.43,254.45 462.35,254.45 
		461.55,254.62 461.41,254.61 461.27,254.59 461.05,254.47 460.94,254.34 460.87,254.15 460.78,253.54 460.59,252.76 460.57,252.58 
		460.58,252.15 460.5,251.73 459.86,250.35 459.81,250.14 459.86,250.04 459.92,249.99 460.1,249.92 460.31,249.71 460.38,249.38 
		460.51,247.78 460.59,247.42 460.7,247.13 461.15,246.4 461.3,246.25 461.44,246.15 461.66,246.06 461.94,245.91 462.12,245.78 
		463.3,245.3 463.36,245.3 463.42,245.32 463.55,245.42 463.63,245.46 463.85,245.53 463.92,245.56 463.97,245.61 464.05,245.65 
		464.19,245.68 464.4,245.58 464.55,245.52 464.67,245.5 464.82,245.51 464.97,245.49 465.22,245.36 465.39,245.31 465.6,245.31 
		465.83,245.24 465.97,245.17 466.07,245.06 466.3,244.7 466.38,244.54 466.41,244.38 466.41,244.29 466.39,244.18 466.33,244.08 
		466.25,243.96 466.17,243.93 466.1,243.93 466.02,243.96 465.96,243.96 465.9,243.96 465.87,243.86 465.86,243.66 466.05,242.7 
		466.03,242.6 465.87,242.39 465.71,242.09 465.7,242.01 465.7,241.94 465.7,241.83 465.69,241.74 465.67,241.64 465.64,241.57 
		465.59,241.5 465.5,241.43 465.41,241.25 465.38,240.99 465.48,240.5 465.53,240.32 465.68,240.19 465.84,240.31 465.9,240.45 
		466.02,240.55 466.16,240.66 466.66,240.89 466.82,240.94 466.98,240.94 467.71,240.67 467.84,240.71 468.31,241.02 468.53,241.22 
		468.67,241.39 468.72,241.52 468.75,241.67 468.77,242.33 468.8,242.49 468.84,242.62 468.96,242.87 469.12,243.13 469.43,243.54 
		469.62,243.73 469.79,243.87 470.68,244.25 470.89,244.01 470.87,243.54 470.91,243.18 471.06,242.77 471.22,242.54 471.41,242.32 
		471.58,242.02 471.67,241.58 471.61,241.11 471.42,240.8 471.16,240.54 470.91,240.22 471.06,240.22 470.73,239.99 470.66,239.64 
		470.76,239.26 470.98,238.96 471.13,238.63 471.08,238.25 471.1,237.83 471.42,237.38 472.44,236.85 472.74,236.77 473.27,236.8 
		473.43,236.77 473.59,236.66 473.66,236.51 473.74,236.39 473.93,236.34 473.83,236.09 473.85,235.9 473.96,235.71 474.12,235.51 
		474.2,235.36 474.28,235.06 474.37,234.91 475.15,234.31 475.3,234.08 475.35,233.62 475.3,233.34 475.31,233.11 475.65,232.5 
		475.69,231.36 475.78,231.04 476.14,230.19 476.25,230.01 476.35,229.91 476.56,229.25 476.74,229.07 477.13,228.92 477.31,228.81 
		477.68,228.32 477.76,228.28 478.26,228.51 478.95,228.56 479.31,228.65 479.57,228.81 479.79,228.64 480.02,228.58 480.24,228.63 
		480.45,228.81 480.58,227.96 480.3,225.83 480.56,225.02 480.83,224.88 482.54,224.51 482.87,224.33 483.46,223.8 484.04,223.4 
		484.72,223.2 485.48,223.15 485.77,223.19 486.08,223.9 486.25,224.43 486.38,224.6 486.51,224.73 486.61,224.77 487.42,224.87 
		487.72,224.95 487.97,225.05 488.09,225.14 488.14,225.25 488.12,225.33 488.07,225.4 487.99,225.45 487.85,225.53 487.72,225.62 
		487.51,225.87 487.46,225.96 487.43,226.05 487.43,226.19 487.46,226.28 487.55,226.38 487.96,226.72 488.1,226.8 488.23,226.85 
		488.49,226.8 488.7,226.73 488.79,226.69 488.86,226.62 488.93,226.53 489.03,226.38 489.19,226.06 489.26,225.94 489.35,225.87 
		489.55,225.81 489.62,225.78 489.66,225.73 489.66,225.66 489.64,225.53 489.63,225.46 489.66,225.39 489.7,225.32 490.08,224.9 
		490.19,224.82 490.32,224.77 490.4,224.8 490.51,224.88 490.6,224.97 490.69,225.09 490.74,225.18 490.75,225.26 490.63,225.51 
		490.6,225.59 490.59,225.68 490.61,225.77 490.68,225.87 491.01,226.23 491.41,226.19 491.48,226.24 491.56,226.36 491.57,226.48 
		491.58,226.57 491.57,226.87 491.55,226.96 491.52,227.03 491.46,227.09 491.32,227.19 491.23,227.32 491.25,227.4 491.32,227.47 
		491.4,227.5 491.47,227.52 491.56,227.52 491.64,227.5 491.75,227.45 491.87,227.44 492.01,227.5 492.15,227.59 492.19,227.67 
		492.19,227.75 492.17,227.84 492.13,227.9 492.08,227.97 492,228.03 491.87,228.11 491.76,228.15 491.65,228.25 491.58,228.39 
		491.53,228.74 491.56,228.91 491.61,229.01 491.7,229.04 491.83,229.04 492.24,228.99 492.33,229.02 492.53,229.15 492.64,229.19 
		492.76,229.19 493,229.17 493.12,229.19 493.16,229.24 493.14,229.32 493.11,229.39 493.13,229.66 494.01,229.48 494.4,229.28 
		494.59,229.06 494.75,228.91 495.03,228.7 495.25,228.61 495.39,228.57 496.07,228.47 496.47,228.3 496.57,228.21 496.62,228.16 
		496.76,227.97 497.11,227.83 497.98,227.88 498.41,227.58 498.86,227.2 499.43,226.97 499.75,226.76 500.16,226.57 500.25,226.5 
		500.31,226.41 500.33,226.31 500.34,226.21 500.4,226.06 500.51,225.87 501.06,225.09 501.08,225.02 501.06,224.95 501.01,224.87 
		500.97,224.75 501.01,224.54 501.12,224.42 501.22,224.35 501.33,224.32 501.45,224.31 501.55,224.35 501.76,224.48 501.83,224.51 
		501.94,224.51 502.09,224.49 502.21,224.4 502.3,224.3 502.63,223.73 502.74,223.63 502.84,223.56 502.96,223.54 503.31,223.37 
		503.46,223.26 503.58,223.26 503.68,223.32 503.77,223.41 503.94,223.48 503.94,223.47 503.94,223.47 503.94,223.45 503.76,222.15 
		503.44,220.82 503.43,220.8 503.42,220.56 503.41,220.42 503.41,220.35 503.45,219.65 503.43,219.27 503.13,217.71 503.13,217.71 
		502.86,217.41 502.79,217.2 502.64,216.89 501.9,215.8 501.78,215.35 501.78,215.35 501.84,215.23 502.05,214.86 502.14,214.59 
		502.24,214.18 502.25,214.13 502.25,214.13 502.27,214.01 502.26,213.34 502.28,213.25 502.28,213.25 502.28,213.24 502.3,213.19 
		502.42,212.99 502.44,212.93 502.46,212.86 502.47,212.79 502.43,212.2 502.44,212.1 502.47,212.01 502.56,211.85 502.6,211.77 
		502.61,211.69 502.61,211.5 502.62,211.39 502.64,211.3 502.69,211.2 502.77,211.11 502.94,211.03 502.95,211.02 503.5,210.92 
		503.56,210.92 503.58,210.92 503.67,210.93 504.06,211.01 504.1,211.01 504.13,211.01 504.21,211 504.23,211 504.57,210.82 
		504.81,210.7 504.97,210.65 505.13,210.62 505.27,210.63 505.31,210.63 505.44,210.65 505.53,210.7 505.53,210.7 505.55,210.74 
		505.58,210.79 505.58,210.79 505.58,210.79 505.62,210.91 505.69,211.05 505.73,211.11 505.77,211.17 505.77,211.17 505.86,211.17 
		505.89,211.14 505.97,211.05 506.15,210.69 506.52,209.62 506.54,209.5 506.53,209.39 506.49,209.27 506.37,209.05 506.33,208.96 
		506.31,208.86 506.33,208.76 506.36,208.66 506.91,207.8 507,207.62 507.16,207.15 507.29,206.9 507.29,206.9 507.42,206.73 
		507.61,206.55 508,206.26 508.18,206.14 508.19,206.14 508.33,206.08 508.68,206.1 508.79,206.08 508.89,206.05 509.03,205.97 
		509.05,205.96 509.38,205.71 509.38,205.71 509.45,205.68 509.84,205.6 510.63,205.68 510.63,205.68 510.69,205.65 510.73,205.63 
		510.74,205.63 511.07,205.37 511.07,205.37 511.12,205.33 511.22,205.28 511.36,205.17 511.38,205.14 511.45,205.07 511.47,205.04 
		511.47,205.04 511.6,204.81 511.6,204.81 511.7,204.72 511.79,204.63 511.79,204.62 511.92,204.52 511.92,204.52 512.06,204.46 
		512.35,204.43 512.46,204.41 512.55,204.38 512.76,204.3 512.97,204.22 512.97,204.22 512.98,204.21 513.04,204.16 513.08,204.12 
		513.08,204.11 513.16,204 513.19,203.95 513.2,203.95 513.3,203.57 513.38,203.36 513.38,203.36 513.42,203.3 513.51,203.18 
		513.52,203.18 513.71,203.03 513.74,203 513.79,202.95 513.88,202.76 513.92,202.57 513.9,202.23 513.93,202.03 513.98,201.86 
		514.13,201.65 514.31,201.46 514.32,201.46 514.43,201.38 514.54,201.31 514.54,201.31 514.59,201.24 514.59,201.23 514.61,201.14 
		514.54,200.98 514.45,200.86 514.36,200.79 514.36,200.79 514.14,200.69 514.12,200.67 514.08,200.64 514.05,200.6 514.03,200.58 
		514.02,200.56 513.99,200.51 513.96,200.44 513.96,200.34 513.99,200.22 514.15,199.84 514.23,199.7 514.24,199.7 514.37,199.55 
		514.57,199.38 515.03,199.24 515.03,199.24 515.03,199.24 	"/>
	
		<polygon id="Islamabad_Capital_Territory" fill-rule="evenodd" fill="#FCD4C7" stroke="#999999" stroke-width="0.25" stroke-linecap="round" stroke-linejoin="round" points="
		500.17,230.33 499.47,229.79 498.9,229.15 498.64,228.92 498.39,228.75 496.92,228.07 496.76,227.97 496.62,228.16 496.57,228.21 
		496.47,228.3 496.07,228.47 495.39,228.57 495.25,228.61 495.03,228.7 494.75,228.91 494.59,229.06 494.4,229.28 494.01,229.48 
		493.13,229.66 491.4,230.57 490.98,231.1 490.89,231.69 491.11,232.26 491.42,232.69 491.8,233.03 492.24,233.09 492.66,233.01 
		493.05,232.8 493.34,232.56 493.97,232.18 494.64,231.94 495,231.85 495.3,231.85 495.67,231.96 495.9,232.16 496.11,232.46 
		496.3,232.83 496.44,233.24 496.41,233.57 496.29,233.86 496.22,234.11 496.36,234.32 496.59,234.49 497.07,234.74 497.45,234.83 
		497.79,234.74 497.86,234.68 497.89,234.65 497.92,234.59 498.13,234.31 498.69,233.71 498.82,233.53 499.5,231.88 499.71,231.59 
		500.18,231.07 500.32,230.8 500.32,230.55 	"/>
	
		<polygon id="Gilgit-Baltistan" fill-rule="evenodd" fill="#FFF3DA" stroke="#999999" stroke-width="0.25" stroke-linecap="round" stroke-linejoin="round" points="
		568.54,198.99 566.05,192.99 563.57,186.96 563.31,186.94 562.98,186.76 562.75,186.5 562.32,185.89 561.73,185.44 560.4,184.95 
		559.79,184.6 559.43,183.86 559.69,182.02 559.51,181.29 559.17,181.18 558.5,181.88 558.06,182.02 557.65,182.03 557.45,182.07 
		557.25,182.13 557.07,182.27 556.85,182.67 556.72,182.8 556.37,182.86 556.05,182.8 555.73,182.8 555.05,183.28 554.77,183.28 
		554.48,183.18 554.11,183.09 553.68,183.15 552.82,183.38 552.38,183.36 551.87,182.9 551.68,182.1 551.61,181.16 551.44,180.3 
		550.99,179.47 550.47,179.17 549.06,179.08 548.48,178.82 547.92,178.26 547.51,177.54 547.41,176.78 547.54,176.41 547.78,176.18 
		548.69,175.59 548.82,175.47 548.92,175.29 548.93,175.05 548.78,174.64 548.8,174.4 549.04,174.1 549.37,173.95 549.61,173.76 
		549.56,173.36 549.38,173.06 548.92,172.48 548.77,172.14 548.77,171.23 549.11,169.43 549,168.88 548.92,168.51 548.92,168.49 
		547.05,164.91 546.6,164.34 545.51,163.35 544.38,162.55 542.94,161.84 541.49,161.55 540.34,161.99 540.23,162.21 540.18,162.45 
		540.06,162.6 538.95,162.55 538.56,162 538.43,161.14 538.39,160.2 538.27,159.32 537.96,158.64 537.48,158.15 536.78,157.85 
		534.62,157.39 534,157.04 533.48,156.57 533.22,156.42 532.88,156.35 531.31,156.57 530.62,156.58 529.99,156.74 529.67,156.88 
		529.41,157.08 529.23,157.36 529.07,158.03 528.96,158.25 528.71,158.34 528.61,158.13 528.5,157.43 528.36,157.16 527.84,156.35 
		527.83,156.35 527.25,155.87 525.91,155.84 525.42,155.4 525.16,155.03 524.87,154.97 524.21,155.24 523.03,155.54 522.67,155.72 
		522.77,155.86 522.8,156.01 522.78,156.18 522.71,156.35 522.58,157.08 522.29,157.17 521.93,156.85 521.6,156.36 521.54,156.29 
		521.47,156.23 521.11,156.12 520.72,156.14 519.96,156.35 519.49,156.75 517.96,157.72 517.06,158.46 516.63,158.62 515.42,158.47 
		515.12,158.54 514.86,158.75 514.74,159.06 514.65,159.85 514.48,160.08 513.4,160.44 512.87,160.43 512.33,160.23 511.78,160.09 
		510.28,159.13 509.72,158.9 508.6,158.69 507.48,158.64 507.48,158.66 507.43,159.11 507.47,159.38 507.48,159.39 507.48,159.4 
		507.53,159.5 507.63,159.62 507.68,159.66 507.72,159.69 507.82,159.75 507.95,159.8 508.63,159.92 508.83,160.01 509.05,160.14 
		509.07,160.15 509.32,160.42 509.33,160.44 510.34,161.12 510.35,161.14 510.57,161.33 510.68,161.46 510.69,161.47 510.69,161.47 
		510.72,161.61 510.76,161.79 510.76,161.8 510.78,161.9 510.77,162.01 510.69,162.21 510.67,162.3 510.68,162.39 510.7,162.49 
		510.7,162.62 510.66,162.75 510.54,162.81 510.45,162.83 510.08,162.74 509.7,162.59 509.13,162.43 508.93,162.41 508.86,162.43 
		508.5,162.68 508.39,162.71 508.29,162.7 507.93,162.52 507.78,162.47 507.65,162.46 507.54,162.51 507.18,162.84 506.97,162.97 
		506.87,162.99 506.78,162.97 506.57,162.87 506.44,162.84 505.95,162.85 505.84,162.85 505.76,162.8 505.75,162.79 505.68,162.72 
		505.57,162.58 505.42,162.33 505.34,162.27 505.34,162.27 505.26,162.28 505.01,162.41 504.9,162.44 504.8,162.44 504.66,162.36 
		504.58,162.34 504.36,162.33 503.97,162.38 503.86,162.36 502.76,162 502.32,161.91 502.07,161.89 500.2,162.6 499.88,162.68 
		499.72,162.68 499.41,162.66 498.9,162.7 498.44,162.79 498.36,162.78 498.27,162.73 498.26,162.72 497.97,162.43 497.79,162.3 
		497.79,162.3 497.69,162.28 497.59,162.32 497.05,162.76 496.84,162.86 496.23,163.01 495.88,163.06 495.8,163.11 495.76,163.19 
		495.76,163.28 495.78,163.4 495.8,163.91 495.87,164.19 496.16,164.95 496.2,165.14 496.2,165.21 496.18,165.28 496.02,165.58 
		495.78,165.96 495.72,166.07 495.67,166.36 495.61,166.52 495.46,166.73 495.35,166.84 495.23,166.93 494.26,167.31 494.14,167.38 
		494.09,167.46 494.09,167.54 494.12,167.63 494.18,167.74 494.25,167.88 494.26,168 494.24,168.18 494.18,168.26 494.1,168.3 
		493.65,168.36 493.1,168.36 492.74,168.42 492.55,168.51 492.44,168.61 492.41,168.72 492.37,169.03 492.37,169.59 492.39,169.86 
		492.38,169.98 492.33,170.09 492.2,170.27 492.06,170.37 491.5,170.5 491.35,170.58 491.19,170.71 490.51,171.53 490.32,171.67 
		490.2,171.73 489.93,171.81 489.66,171.93 489.31,172.18 489.22,172.27 488.83,172.84 488.73,172.88 488.62,172.88 488.13,172.68 
		487.92,172.66 487.75,172.67 487.54,172.71 487.27,172.8 487.03,172.99 486.88,173.14 486.73,173.32 486.62,173.48 486.55,173.62 
		486.49,173.77 486.29,174.7 486.25,175.05 486.25,175.13 486.28,175.21 486.41,175.45 486.44,175.58 486.41,175.72 485.94,176.34 
		485.89,176.44 485.86,176.53 485.84,176.66 485.84,176.77 485.88,176.92 485.95,177.1 485.97,177.18 486,177.25 486.06,177.34 
		486.64,177.85 486.76,178.01 486.78,178.19 486.92,178.56 486.94,178.61 486.92,178.69 485.59,181.15 485.59,181.15 486.35,181.48 
		488.12,182.26 488.16,182.27 489.88,182.48 490.66,182.65 490.77,182.65 490.91,182.62 490.96,182.56 491.06,182.41 491.13,182.34 
		491.82,181.91 491.98,181.85 492.12,181.82 493.94,181.73 494.05,181.75 494.13,181.79 494.19,181.81 494.46,181.94 494.46,181.95 
		494.59,182.03 494.62,182.05 494.74,182.11 494.76,182.12 495.03,182.21 495.23,182.23 495.42,182.22 495.54,182.19 495.63,182.15 
		495.7,182.11 495.78,182.03 495.93,181.84 496.02,181.77 496.03,181.77 496.06,181.78 496.07,181.78 496.07,181.78 496.11,181.82 
		496.14,181.89 496.18,181.95 496.44,182.23 496.63,182.4 496.64,182.41 496.65,182.41 496.82,182.53 497.18,182.77 497.19,182.78 
		497.25,182.86 497.29,182.94 497.27,183.02 497.22,183.1 496.88,183.44 496.83,183.51 496.81,183.58 496.71,184.75 496.71,184.92 
		496.72,185.07 496.75,185.19 496.82,185.29 496.93,185.41 498.62,186.57 498.85,186.78 498.91,186.86 499.06,186.99 499.62,187.38 
		499.76,187.48 499.77,187.49 499.89,187.62 499.93,187.71 500.02,187.95 500.07,187.99 500.07,187.99 500.07,188 500.12,188.02 
		500.14,188.03 500.4,188.1 500.48,188.11 500.84,188.07 500.95,188.07 501.15,188.11 501.15,188.12 501.29,188.17 501.3,188.18 
		501.45,188.26 501.45,188.27 501.56,188.36 501.63,188.45 501.68,188.57 501.71,188.68 501.94,189.15 501.95,189.17 501.95,189.17 
		501.95,189.18 502.55,188.86 502.94,188.95 502.97,188.96 502.97,188.96 502.98,188.96 503.67,189.47 503.68,189.48 503.69,189.49 
		504.81,189.31 505.97,189.29 508.32,189.64 508.33,189.64 508.57,189.75 508.58,189.76 508.58,189.76 508.69,190.12 508.7,190.2 
		508.76,191.13 508.77,191.22 508.8,191.31 508.81,191.38 508.8,191.44 508.75,191.49 508.67,191.54 508.5,191.61 508.04,191.87 
		507.77,192.1 507.74,192.16 507.71,192.22 507.68,192.31 507.58,192.54 507.16,193.25 507.11,193.37 507.08,193.45 507.08,193.52 
		507.09,193.65 507.09,193.73 507.03,194.34 507.03,194.44 507.03,194.51 507.06,194.59 507.6,195.55 507.63,195.66 507.63,195.76 
		507.58,196.1 507.54,196.22 507.53,196.31 507.55,196.42 507.67,196.63 507.77,196.72 507.84,196.76 507.85,196.77 507.85,196.77 
		507.92,196.77 507.97,196.76 508.03,196.73 508.1,196.67 508.48,196.28 508.54,196.24 508.6,196.21 508.66,196.2 509.11,196.2 
		509.25,196.23 509.27,196.23 509.27,196.23 509.33,196.25 509.48,196.31 509.81,196.49 510.17,196.88 510.25,196.92 510.27,196.93 
		510.27,196.93 510.27,196.93 510.37,196.92 510.7,196.8 510.88,196.83 510.89,196.83 511.11,196.91 511.2,196.94 511.37,197.01 
		511.82,197.6 511.91,197.64 511.98,197.66 511.99,197.66 512,197.66 512.03,197.67 512.17,197.6 512.33,197.56 512.61,197.54 
		512.61,197.53 512.65,197.55 512.66,197.55 512.73,197.57 512.8,197.62 512.82,197.69 512.87,197.76 512.87,197.76 512.91,197.8 
		513.22,198.11 513.33,198.17 513.41,198.2 513.43,198.21 513.43,198.21 513.7,198.24 514.2,198.29 514.2,198.29 514.53,198.28 
		514.54,198.28 514.55,198.28 514.59,198.3 514.62,198.31 514.62,198.32 514.65,198.37 514.64,198.44 514.61,198.53 514.62,198.63 
		514.68,198.74 514.93,198.97 515,199.05 515.03,199.11 515.03,199.11 515.03,199.11 515.03,199.23 515.03,199.23 515.03,199.23 
		515.03,199.24 515.03,199.24 515.03,199.24 515.27,199.24 515.95,199.26 515.99,199.26 517.66,199.51 517.68,199.51 519.17,199.36 
		520.27,198.96 521.22,198.69 521.24,198.69 521.7,198.77 522.28,199.08 522.79,199.66 523.25,200.42 523.96,202.07 524.35,202.78 
		524.85,203.28 527.37,204.76 528.6,205.28 529.72,205.62 529.72,205.62 530.58,205.63 531.14,205.54 531.56,205.38 532.28,205.24 
		532.28,205.24 532.64,205.04 533.29,204.43 533.29,204.43 533.61,204.35 533.63,204.35 534,204.53 534.85,205.44 535.29,206.04 
		535.6,206.76 535.72,207.5 535.65,208.21 535.65,208.22 535.19,209.28 535.19,209.28 535.16,209.49 535.16,209.51 535.38,209.66 
		535.65,210.08 535.94,210.4 536.66,210.94 537.42,211.32 542.24,212.62 543.04,212.66 544.11,212.4 544.49,212.4 545.27,212.5 
		545.61,212.41 545.98,212.11 547.04,211 548.23,210.1 548.73,209.94 548.86,209.87 549.1,209.57 549.48,208.92 549.77,208.65 
		550.41,208.51 551.57,209.01 552.18,209 554.14,208.48 556.66,207.01 557.36,206.74 558.06,206.86 558.86,207.45 559.15,207.56 
		559.47,207.57 561.05,207.23 561.29,207.1 562.95,205.49 563.13,205.06 563.06,203.86 563.21,203.35 563.65,203 564.29,202.78 
		564.94,202.72 565.44,202.86 565.92,203.17 566.2,203.22 566.43,203.04 566.78,202.65 567.88,201.76 568.16,201.38 568.29,200.68 
		568.14,200.07 568.06,199.52 568.42,199.06 	"/>
	
		<polygon id="Federally_Administered_Tribal_Areas" fill-rule="evenodd" fill="#FFE3CA" stroke="#999999" stroke-width="0.25" stroke-linecap="round" stroke-linejoin="round" points="
		473.57,228.7 473.52,228.57 473.47,228.51 473.4,228.48 472.92,228.47 472.32,228.36 472.19,228.31 472.05,228.24 471.84,228.05 
		471.74,227.93 471.67,227.77 471.51,227.29 471.41,227.17 471.33,227.11 471.26,227.14 471.2,227.18 471.11,227.34 471.02,227.6 
		470.66,228.26 470.41,228.51 469.84,228.92 468.8,229.46 467.96,229.62 467.79,229.62 467.58,229.6 467.47,229.58 467.39,229.55 
		467.33,229.51 467.28,229.43 467.17,229.2 467.02,228.6 467,228.48 466.99,228.31 467.02,227.93 467.02,227.81 466.99,227.71 
		466.94,227.63 466.89,227.55 466.7,227.37 466.02,226.87 465.77,226.65 465.71,226.56 465.68,226.48 465.67,226.41 465.67,226.35 
		465.73,225.9 465.72,225.77 465.63,225.28 465.49,224.99 465.35,224.8 465.21,224.64 465.05,224.52 464.93,224.4 464.8,224.11 
		464.76,223.95 464.75,223.84 464.76,223.64 464.76,223.61 464.77,223.41 464.78,223.36 464.8,223.31 464.89,223.12 464.93,222.98 
		464.91,222.76 464.83,222.31 464.8,222.23 464.57,221.93 464.56,221.89 464.57,221.79 464.58,221.76 464.59,221.74 464.63,221.69 
		464.7,221.63 464.76,221.58 464.78,221.56 464.8,221.49 464.81,221.39 464.79,221.17 464.78,221.08 464.75,221.02 464.66,220.97 
		464.51,220.84 464.46,220.82 464.37,220.79 464.32,220.78 464.27,220.76 464.21,220.73 464.12,220.67 464.1,220.63 464.09,220.61 
		464.13,220.48 464.13,220.46 464.13,220.43 464.13,220.4 464.11,220.3 464.11,220.26 464.11,220.24 464.12,220.22 464.16,220.16 
		464.23,220.08 465.63,219.69 465.68,219.64 465.72,219.58 465.72,219.57 465.72,219.55 465.82,219.45 466.13,219.24 466.14,219.22 
		466.18,219.19 466.29,219.12 466.88,218.64 467.04,218.33 467.57,217.89 467.64,217.81 467.7,217.59 467.7,217.56 467.7,217.53 
		467.69,217.51 467.68,217.49 467.67,217.49 467.64,217.47 467.62,217.46 467.6,217.45 467.58,217.43 467.57,217.41 467.58,217.36 
		467.69,217 467.69,216.98 467.68,216.97 467.66,216.93 467.64,216.89 467.62,216.8 467.62,216.76 467.62,216.73 467.66,216.69 
		468,216.39 468.06,216.32 468.08,216.27 468.08,216.22 468.08,216.12 468.09,216.07 468.11,216.03 468.13,216.01 468.18,215.97 
		468.22,215.95 468.36,215.83 468.59,215.55 468.61,215.54 468.63,215.54 468.65,215.54 468.72,215.58 468.75,215.58 468.8,215.59 
		468.82,215.59 468.84,215.59 468.87,215.61 468.94,215.67 469.01,215.76 469.03,215.77 469.06,215.79 469.11,215.81 469.18,215.83 
		469.22,215.83 469.24,215.81 469.24,215.77 469.24,215.7 469.21,215.54 469.22,215.51 469.22,215.49 469.23,215.45 469.26,215.25 
		469.27,215.2 469.28,215.17 469.4,215.13 469.44,215.13 469.54,215.14 469.6,215.12 469.66,215.09 469.8,215.01 469.85,214.97 
		469.88,214.94 469.87,214.92 469.86,214.9 469.82,214.85 469.81,214.83 469.8,214.81 469.8,214.78 469.8,214.75 469.8,214.72 
		469.84,214.66 469.87,214.45 469.88,214.41 469.91,214.37 469.94,214.34 470.07,214.21 470.1,214.19 470.12,214.18 470.2,214.16 
		470.22,214.14 470.25,214.12 470.31,214.07 470.38,214.02 470.53,213.97 470.37,213.5 470.3,213.4 470.28,213.4 470.27,213.4 
		470.26,213.4 470.22,213.42 470.18,213.43 470.12,213.42 469.99,213.4 469.94,213.38 469.91,213.36 469.9,213.3 469.89,213.27 
		469.89,213.24 469.9,213.21 469.92,213.1 469.92,213.07 469.9,212.97 469.82,212.74 469.82,212.72 469.84,212.66 469.84,212.64 
		469.58,211.77 469.94,211.36 470.02,211.25 470,211.03 470.01,210.89 470.18,210.19 470.24,210 470.29,209.9 470.35,209.88 
		470.4,209.84 470.41,209.83 470.43,209.82 470.45,209.81 470.49,209.8 470.6,209.7 470.87,209.4 470.92,209.36 471.06,209.23 
		471.08,209.23 471.09,209.23 471.11,209.23 471.13,209.24 471.22,209.31 471.25,209.33 471.27,209.33 471.32,209.34 471.72,209.03 
		471.83,208.35 471.83,208.09 471.81,207.9 471.79,207.76 471.78,207.74 471.77,207.73 471.75,207.68 471.72,207.62 471.68,207.5 
		471.71,207.45 471.77,207.41 471.89,207.39 471.95,207.37 472,207.31 472.18,207.04 472.26,206.98 472.36,206.96 472.46,206.9 
		472.48,206.84 472.36,206.68 472.29,206.57 472.2,206.34 472.12,206.26 472.05,206.23 471.94,206.25 471.86,206.25 471.76,206.24 
		471.52,206.16 471.39,206.1 471.27,206.06 470.62,205.95 470.51,205.96 470.4,205.99 470.12,206.08 469.34,206.52 469.21,206.55 
		469.06,206.51 468.82,206.39 468.5,206.09 468.46,206.03 468.46,205.98 468.47,205.86 468.47,205.77 468.47,205.75 468.42,205.55 
		468.36,205.44 468.32,205.33 468.31,205.31 468.3,205.28 468.3,205.17 468.29,205.13 468.27,205.07 468.25,205.03 468.2,204.94 
		468.18,204.89 468.17,204.88 468.14,204.67 468.11,204.61 468.09,204.57 468.06,204.56 467.93,204.55 467.74,204.47 467.34,204.39 
		466.98,204.19 466.94,204.15 466.32,203.37 466.06,202.9 466.01,202.84 463.81,203.74 463.16,204.24 462.82,204.93 462.54,205.69 
		461.58,207.07 461.33,207.32 460.62,207.69 459.34,208.75 459.15,209 459.12,209.35 459.26,209.84 459.32,210.3 459.26,210.84 
		459.07,211.29 458.73,211.45 457.99,211.34 457.6,211.34 457.56,211.36 457.29,211.48 457.08,211.88 457.05,212.37 457.15,212.86 
		457.33,213.28 457.71,213.85 458.22,214.49 458.79,215.03 460.09,215.76 460.17,216.31 459.64,217.85 459.63,218.26 459.81,219.03 
		459.87,219.48 459.84,220.01 459.72,220.3 459.21,220.89 459.01,221.33 459.03,221.69 459.09,222.04 459.01,222.46 458.72,222.73 
		457.82,222.92 457.44,223.05 457.23,223.35 457.02,223.55 456.76,223.64 456.42,223.61 455.93,223.45 455.75,223.5 455.67,223.78 
		455.34,224.43 454.04,224.68 451.57,224.65 449.12,225.01 448.56,224.99 447.05,224.66 445.57,224.6 445.24,224.5 444.61,224.18 
		443.57,224.08 439.62,222.69 439,222.65 438.03,222.8 437.84,222.86 437.54,222.97 437.23,223.28 437.19,223.63 437.26,223.96 
		437.22,224.28 436.9,224.62 436.66,224.94 436.77,225.27 437.31,225.8 437.47,226.09 437.71,226.93 437.87,227.28 438.31,227.92 
		438.47,228.25 438.6,228.68 438.79,229.11 439.07,229.28 439.5,229.34 439.78,229.38 440.77,229.8 441.54,229.66 441.73,229.9 
		441.88,230.77 441.99,231.11 442.07,231.23 442.24,231.37 442.54,231.51 442.68,231.61 442.75,231.76 442.74,232.29 442.36,233.68 
		442.33,234.09 442.4,234.51 442.56,234.91 442.82,235.24 442.96,235.34 443.47,235.51 443.6,235.62 443.73,235.98 443.83,236.14 
		444.79,237.23 445.08,237.91 444.95,238.63 441.85,241.25 441.49,241.45 441.1,241.42 440.66,241.27 440.44,241.36 439.83,242.52 
		439.69,242.72 439.47,242.82 438.94,242.77 438.76,242.81 437.39,243.65 436.61,243.71 435.39,243.09 434.68,243.21 433.82,243.83 
		433.49,243.92 433.32,243.89 433.17,243.81 432.99,243.76 432.4,243.87 432.02,243.86 431.29,243.96 430.68,244.36 430.19,244.98 
		430.02,245.35 429.84,245.72 430.18,248.09 430,248.72 429.89,248.82 429.42,249.18 428.97,249.81 428.35,250.27 428.15,250.57 
		428.19,250.99 428.28,251.16 428.41,251.31 428.57,251.41 428.73,251.48 428.86,251.58 428.9,251.74 428.94,252.12 429.12,252.84 
		429.06,253.11 428.84,253.53 427.88,254.99 427.55,255.26 426.8,255.52 426.43,255.76 425.87,256.46 425.53,257.28 425.44,258.18 
		425.63,259.11 426.11,260.32 426.17,260.78 426.15,261.25 426.03,262.18 426.02,263.09 425.88,264 425.86,264.47 426.22,266.52 
		426.8,268.16 426.85,268.44 426.78,268.56 427.28,268.6 427.39,268.8 427.65,268.8 428.02,268.71 430.76,268.51 431.08,268.57 
		431.7,268.4 432.01,268.17 432.32,267.88 432.61,267.56 433.08,266.87 433.39,266.61 434.22,266.28 434.39,266.27 435.77,265.97 
		436.3,266.05 436.36,266.14 436.33,266.43 436.16,266.88 436.04,267.13 436.01,267.29 436.05,267.45 436.21,267.66 436.41,267.85 
		436.65,268.02 437.01,268.23 437.08,268.28 437.13,268.37 437.15,268.48 437.12,268.69 437.05,268.85 436.68,269.5 436.64,269.6 
		436.63,269.7 436.63,269.81 436.66,269.92 436.72,270.07 436.84,270.25 436.95,270.37 437.06,270.45 437.16,270.51 437.25,270.54 
		437.32,270.55 437.4,270.53 437.5,270.48 437.61,270.42 437.69,270.35 437.77,270.27 437.95,270.03 438.19,269.57 438.24,269.51 
		438.32,269.47 438.4,269.46 438.47,269.48 438.53,269.56 438.55,269.66 438.45,270.78 438.33,271.17 438.28,271.65 438.31,272.84 
		438.29,273.15 438.36,274.61 438.29,275.1 438.22,276.47 438.18,276.73 438.03,277.22 438,277.45 437.99,277.6 438.01,277.72 
		438.07,277.94 438.14,278.03 438.28,278.12 438.88,278.38 439.06,278.4 439.19,278.4 439.37,278.51 439.64,279.03 439.97,281.33 
		439.98,281.56 440.02,281.69 440.09,281.8 440.24,281.89 440.31,281.89 440.34,281.85 440.35,281.77 440.33,281.39 440.35,281.21 
		440.4,280.99 440.44,280.85 440.52,280.75 440.69,280.58 440.72,280.52 440.76,280.31 440.85,280.09 440.88,279.96 440.9,279.89 
		440.94,279.83 441.02,279.82 441.11,279.86 441.26,280.01 441.37,280.04 441.45,280.04 441.5,279.98 441.55,279.92 441.61,279.87 
		441.69,279.83 441.82,279.83 442.13,279.89 442.2,279.87 442.27,279.84 442.37,279.78 442.46,279.7 442.58,279.52 442.68,279.3 
		442.79,279.14 442.86,279.09 442.93,279.06 443.01,279.05 443.09,279.03 443.16,278.98 443.37,278.64 443.48,278.5 443.54,278.41 
		443.58,278.36 443.63,278.35 443.68,278.37 443.76,278.47 443.82,278.58 443.87,278.81 443.89,279.03 443.86,279.34 443.92,279.63 
		443.98,279.82 444.18,280.12 444.24,280.24 444.28,280.36 444.29,280.5 444.28,280.73 444.05,281.65 444.02,281.87 444.07,283.31 
		443.78,285.12 443.75,285.98 443.78,286.49 443.94,287.2 444.01,287.3 444.06,287.33 444.16,287.35 444.26,287.28 444.41,286.95 
		444.44,286.85 444.44,286.7 444.43,286.52 444.3,286.09 444.26,285.75 444.26,285.66 444.3,285.55 444.4,285.44 445.05,285.1 
		445.37,285.01 445.79,284.8 445.95,284.75 446.07,284.73 446.86,284.68 446.96,284.65 447.04,284.41 446.89,283.47 443.88,273.24 
		443.6,272.76 443.54,272.64 443.36,271.4 443.37,271.32 443.43,271.05 443.49,270.72 443.49,270.56 443.46,269.97 443.43,269.76 
		442.73,267.42 442.01,266.8 441.82,266.41 441.66,265.62 441.38,264.88 440.87,264.1 440.82,264 440.81,263.94 440.81,263.87 
		440.87,263.54 440.92,263.37 441.14,263.06 441.33,262.86 441.76,262.49 442.47,262.02 442.56,261.94 442.7,261.77 442.92,261.44 
		443.12,260.99 443.22,260.88 443.32,260.8 443.43,260.73 443.49,260.7 443.56,260.69 444.13,260.63 444.2,260.64 444.42,260.71 
		444.51,260.73 444.6,260.73 444.68,260.71 444.75,260.69 444.94,260.6 445.35,260.33 445.82,259.91 445.92,259.8 446.29,259.17 
		446.37,259.08 446.97,258.57 447.37,258.09 447.48,257.88 447.57,257.64 447.66,257.31 447.83,256.82 447.96,256.56 448.05,256.43 
		448.12,256.38 448.19,256.36 448.25,256.35 448.31,256.35 448.44,256.36 448.6,256.41 449.82,257.12 449.93,257.14 450.05,257.13 
		450.24,257.01 450.32,256.93 450.34,256.84 450.34,256.76 450.3,256.61 450.15,256.19 447.02,252.22 446.74,251.77 446.65,251.74 
		446.48,251.71 446.43,251.68 446.42,251.62 446.49,251.27 446.5,251.13 446.52,250.99 446.46,250.36 446.46,249.31 446.49,249.19 
		446.55,249.05 446.63,249.03 446.69,249.02 446.76,249.03 446.88,248.89 447.05,248.63 447.6,247.57 448.11,246.87 448.21,246.63 
		448.63,245.19 448.69,245.12 448.86,245.05 448.99,244.97 449.23,244.72 449.5,244.51 449.61,244.47 449.69,244.46 450.14,244.61 
		450.25,244.62 450.34,244.62 450.5,244.6 450.89,244.66 450.98,244.66 451.06,244.67 451.14,244.67 451.33,244.63 451.44,244.59 
		451.72,244.53 452.08,244.4 452.5,244.32 452.67,244.27 452.9,244.15 453.05,244.01 453.34,243.64 453.47,243.54 453.62,243.47 
		454.05,243.37 455.22,242.05 455.5,241.61 455.52,241.48 455.5,241.38 455.45,241.29 455.37,241.2 455.28,241.14 454.83,240.98 
		454.47,240.9 454.22,240.8 454.12,240.77 454.02,240.76 453.84,240.78 453.77,240.76 453.54,240.69 453.47,240.68 453.06,240.69 
		452.48,240.62 452.28,240.57 452.22,240.53 452.2,240.48 452.19,240.41 452.19,240.35 452.3,239.99 452.26,239.95 452.18,239.92 
		452.06,239.89 451.84,239.88 451.74,239.86 451.15,239.63 451.05,239.61 450.84,239.61 450.68,239.58 450.53,239.53 450.26,239.4 
		449.81,238.75 449.65,237.94 449.53,237.73 449.33,237.66 448.72,237.29 448.49,237.09 448.4,236.98 448.36,236.88 448.37,236.81 
		448.4,236.65 448.42,236.56 448.45,236.5 448.5,236.41 448.75,236.24 448.86,236.19 449.15,236.12 449.41,236.09 449.61,236.04 
		449.82,236.03 450.08,236.04 450.19,236.03 450.28,236.01 450.38,235.97 450.56,235.83 451.08,235.23 451.22,235.11 451.29,235.08 
		451.36,235.07 451.76,235.05 452.09,235 452.6,234.79 452.69,234.78 452.79,234.79 452.93,234.75 453,234.67 453.06,234.55 
		453.07,234.46 453.05,234.27 453.01,234.05 453.01,233.98 453.01,233.9 453.02,233.83 453.1,233.51 453.36,232.88 453.46,232.74 
		453.56,232.66 453.88,232.62 454.49,233.03 454.79,233.14 457.72,233.43 457.86,233.41 458.25,233.24 458.45,233.09 458.62,232.93 
		458.75,232.85 458.98,232.77 459.69,232.59 459.79,232.53 459.81,232.47 459.78,232.39 459.71,232.34 459.62,232.29 459.54,232.26 
		459.47,232.22 459.42,232.18 459.4,232.11 459.39,232.05 459.41,231.98 459.44,231.92 459.55,231.8 459.61,231.74 459.84,231.61 
		460.51,231.35 460.5,231.09 460.24,230.48 460.22,230.36 460.23,229.46 460.26,229.35 460.34,229.32 460.42,229.32 460.74,229.42 
		460.88,229.49 461.16,229.7 461.24,229.73 461.36,229.72 461.45,229.73 461.54,229.75 461.6,229.81 461.66,229.89 461.75,230.15 
		461.78,230.21 462.08,230.52 462.51,230.82 463.39,231.28 463.7,231.48 463.84,231.64 463.96,231.72 464.18,231.82 464.3,231.83 
		464.4,231.8 464.53,231.66 464.68,231.58 464.87,231.52 465.65,231.46 466.06,231.35 466.18,231.35 466.29,231.35 466.55,231.41 
		468.89,231.58 469.07,231.51 469.28,231.45 469.41,231.45 469.5,231.48 469.56,231.53 469.62,231.59 469.65,231.66 469.69,231.76 
		469.71,231.85 469.71,231.94 469.68,232.02 469.63,232.1 469.55,232.17 469.38,232.29 469.2,232.38 468.57,232.59 468.36,232.68 
		468.27,232.76 468.21,232.85 468.19,232.93 468.2,233 468.32,233.15 468.45,233.23 468.62,233.32 469.05,233.48 469.8,233.57 
		470.19,233.52 470.69,233.3 471.74,232.66 471.98,232.47 472.19,232.36 472.83,232.14 473,232.06 473.08,232.01 473.15,231.95 
		473.19,231.88 473.22,231.81 473.23,231.74 473.2,231.68 473.16,231.63 472.97,231.47 472.34,231.04 472.28,230.99 472.26,230.94 
		472.25,230.87 472.28,230.8 472.32,230.72 472.71,230.26 472.81,230.1 472.9,229.92 473.47,229.09 473.53,228.97 473.59,228.79 	
		"/>
	
		<polygon id="Balochistan" fill-rule="evenodd" fill="#FCD4C7" stroke="#999999" stroke-width="0.25" stroke-linecap="round" stroke-linejoin="round" points="
		444.28,280.73 444.29,280.5 444.28,280.36 444.24,280.24 444.18,280.12 443.98,279.82 443.92,279.63 443.86,279.34 443.89,279.03 
		443.87,278.81 443.82,278.58 443.76,278.47 443.68,278.37 443.63,278.35 443.58,278.36 443.54,278.41 443.48,278.5 443.37,278.64 
		443.16,278.98 443.09,279.03 443.01,279.05 442.93,279.06 442.86,279.09 442.79,279.14 442.68,279.3 442.58,279.52 442.46,279.7 
		442.37,279.78 442.27,279.84 442.2,279.87 442.13,279.89 441.82,279.83 441.69,279.83 441.61,279.87 441.55,279.92 441.5,279.98 
		441.45,280.04 441.37,280.04 441.26,280.01 441.11,279.86 441.02,279.82 440.94,279.83 440.9,279.89 440.88,279.96 440.85,280.09 
		440.76,280.31 440.72,280.52 440.69,280.58 440.52,280.75 440.44,280.85 440.4,280.99 440.35,281.21 440.33,281.39 440.35,281.77 
		440.34,281.85 440.31,281.89 440.24,281.89 440.09,281.8 440.02,281.69 439.98,281.56 439.97,281.33 439.64,279.03 439.37,278.51 
		439.19,278.4 439.06,278.4 438.88,278.38 438.28,278.12 438.14,278.03 438.07,277.94 438.01,277.72 437.99,277.6 438,277.45 
		438.03,277.22 438.18,276.73 438.22,276.47 438.29,275.1 438.36,274.61 438.29,273.15 438.31,272.84 438.28,271.65 438.33,271.17 
		438.45,270.78 438.55,269.66 438.53,269.56 438.47,269.48 438.4,269.46 438.32,269.47 438.24,269.51 438.19,269.57 437.95,270.03 
		437.77,270.27 437.69,270.35 437.61,270.42 437.5,270.48 437.4,270.53 437.32,270.55 437.25,270.54 437.16,270.51 437.06,270.45 
		436.95,270.37 436.84,270.25 436.72,270.07 436.66,269.92 436.63,269.81 436.63,269.7 436.64,269.6 436.68,269.5 437.05,268.85 
		437.12,268.69 437.15,268.48 437.13,268.37 437.08,268.28 437.01,268.23 436.65,268.02 436.41,267.85 436.21,267.66 436.05,267.45 
		436.01,267.29 436.04,267.13 436.16,266.88 436.33,266.43 436.36,266.14 436.3,266.05 435.77,265.97 434.39,266.27 434.22,266.28 
		433.39,266.61 433.08,266.87 432.61,267.56 432.32,267.88 432.01,268.17 431.7,268.4 431.08,268.57 430.76,268.51 428.02,268.71 
		427.65,268.8 427.39,268.8 427.28,268.6 426.78,268.56 426.74,268.64 425.86,269.3 425.36,269.84 423.36,272.94 423.1,273.24 
		422.82,273.41 422.58,273.8 422,274.33 421.34,274.81 420.85,275.01 420.19,274.97 419.57,275.17 418.41,275.76 417.68,275.85 
		417.19,275.5 416.35,274.28 415.88,273.73 415.74,273.41 415.69,272.54 415.57,272.28 415.34,272.15 414.31,271.96 413.24,271.35 
		412.62,271.11 412.21,271.11 411.78,271.26 410.99,271.69 410.63,271.97 410.7,272.18 411.02,272.32 411.41,272.39 412.51,272.36 
		412.86,272.41 413.03,272.6 412.79,272.87 412.4,273.11 412.08,273.21 411.41,273.1 409.49,272.41 408.76,272.35 408.04,272.39 
		407.64,272.33 407.41,272.1 407.22,271.81 406.76,271.43 406.35,271.21 405.88,271.04 405.51,271.07 405.27,271.35 404.88,272.27 
		404.77,272.48 404.68,272.64 404.08,273.2 403.99,273.4 403.93,273.85 403.82,274 402.86,274.54 402.56,274.79 402.35,275.08 
		402.15,275.19 401.41,275.23 400.86,275.14 400.61,275.15 400.09,275.4 398.97,276.67 398.37,277.1 397.97,277.38 397.42,277.6 
		396.85,277.66 395.66,277.4 395.09,277.41 394.85,277.79 394.98,278.11 395.25,278.43 395.49,278.81 395.6,279.64 395.86,279.96 
		396.23,280.19 396.59,280.3 398.11,280.09 398.77,280.31 398.86,281.21 398.67,281.61 398.39,281.74 397.65,281.71 397.35,281.8 
		397.1,281.98 396.86,282.2 395.69,282.96 395.35,283.08 394.38,283.27 393.7,283.56 392.61,283.71 391.35,284.25 391.01,284.31 
		389.84,284.2 388.89,284.25 388.59,284.22 388.21,284.08 387.54,283.71 387.18,283.6 386.81,283.61 386.11,283.79 385.74,283.79 
		385.32,283.71 385.09,283.63 384.96,283.52 384.93,283.35 385,283.22 385.1,283.09 385.15,282.91 385.11,282.44 384.98,282.14 
		384.71,282 383.64,282.02 382.95,282.22 381.72,282.83 381.17,283.31 380.75,283.8 380.28,284.16 379.58,284.26 379.13,284.57 
		378.51,286.98 378.16,287.47 376.44,289.24 376.03,289.43 373.56,289.93 373.25,290.1 373.08,290.4 371.28,297.24 371.23,298.17 
		371.54,299.01 371.98,299.58 372.12,299.86 372.22,300.29 372.27,300.73 371.92,303.53 371.97,304.81 371.88,305.21 370.7,307.63 
		370.44,308.43 370.39,308.76 370.5,309.05 371.14,309.5 371.9,310.27 372.46,310.7 372.61,310.9 372.54,311 372.39,311.05 
		372.28,311.12 371.9,311.77 371.41,312.41 369.96,313.46 368.4,313.92 367.34,314.23 366.28,314.54 365.21,314.85 364.15,315.17 
		363.09,315.48 362.03,315.79 360.96,316.1 359.9,316.41 358.84,316.72 357.77,317.04 356.71,317.35 355.65,317.66 354.59,317.97 
		353.53,318.28 352.47,318.59 351.4,318.9 348.75,319.68 347.84,319.65 344.8,319.1 342.3,319.08 338.93,319.05 338.53,319.04 
		333.59,320.52 332.94,320.85 332.53,321.4 331.86,322.7 331.36,322.91 329.27,322 325.91,321.35 321.89,320.58 319.1,320.84 
		318.2,320.92 317.3,321.01 316.41,321.09 315.51,321.18 314.61,321.26 313.71,321.35 312.82,321.43 311.92,321.52 311.02,321.6 
		310.13,321.69 309.23,321.77 308.33,321.86 307.44,321.94 306.54,322.03 305.64,322.11 304.74,322.2 304.22,322.24 301.93,322.46 
		300.04,322.1 298.31,321.54 296.78,321.05 295.26,320.56 293.74,320.07 292.22,319.58 290.69,319.09 289.17,318.59 287.64,318.1 
		286.12,317.61 284.6,317.12 283.07,316.62 281.55,316.13 280.03,315.64 278.51,315.15 276.98,314.66 275.46,314.16 273.93,313.67 
		272.63,313.25 272.05,312.98 273.53,314.73 274.49,315.88 275.69,317.32 277.07,318.97 278.5,320.69 280,322.49 280.36,322.78 
		280.75,322.93 281.07,323.16 281.24,323.69 281.2,324.1 280.99,324.84 280.99,325.25 281.16,325.68 281.74,326.32 281.98,326.68 
		282.03,326.92 282.08,327.44 282.18,327.68 282.37,327.9 282.54,327.96 282.71,327.98 282.91,328.09 283.09,328.38 283.19,328.74 
		283.33,329.04 283.64,329.18 283.82,329.32 283.87,329.5 283.81,329.69 283.64,329.87 283.51,330.01 283.46,330.14 283.5,330.26 
		283.64,330.37 283.88,330.48 284.08,330.64 284.24,330.85 285.02,332.64 285.12,333.04 285.17,333.39 285.26,333.71 285.79,334.3 
		286.31,335.45 286.84,336.1 288.73,337.82 289.49,338.81 290.65,339.89 291.23,340.56 291.57,340.74 292.67,341.05 293.54,341.55 
		294.09,341.73 295.31,341.83 295.89,341.96 297.41,342.64 299.83,343.13 300.34,343.4 300.55,343.65 300.71,343.93 300.9,344.18 
		301.19,344.35 301.5,344.45 301.69,344.57 301.81,344.78 301.93,345.14 302.2,345.59 303.36,346.84 303.73,347.08 306.72,346.47 
		307.13,346.72 307.22,347.44 306.95,349.57 306.65,351.93 306.99,353.36 307.47,355.35 307.58,356.58 307.73,358.25 307.83,359.29 
		308,361.19 308.1,362.27 307.99,363.13 307.03,365.3 307.39,365.73 307.48,365.96 307.44,366.29 307.36,366.59 307.25,366.82 
		307.07,366.95 306.78,366.97 307.57,367.68 307.84,367.83 307.99,367.82 308.24,367.68 308.37,367.65 308.51,367.7 308.94,367.94 
		309.52,368.07 310.02,368.04 311.08,367.83 311.56,367.75 312.52,367.46 313,367.43 313.31,367.46 313.54,367.46 314.54,367.14 
		314.73,367.14 314.96,367.22 315.43,367.66 315.64,367.79 316.09,367.96 316.26,368.06 316.45,368.28 316.71,368.66 317.34,370.05 
		317.02,369.92 316.62,369.92 316.26,370.08 316.06,370.41 316,370.62 315.8,370.9 315.72,371.1 315.7,371.35 315.79,373.66 
		315.95,374.05 316.18,374.38 316.34,374.71 316.28,375.09 316,375.34 315.26,375.46 314.96,375.62 314.82,375.94 314.68,378.91 
		314.49,379.73 314.08,380.14 313.89,380.13 313.75,380.05 313.62,379.96 313.46,379.89 313.28,379.87 312.75,379.99 312.03,379.97 
		311.32,379.86 309.66,379.82 308.23,379.78 306.98,379.75 306.78,379.81 306.64,380 306.45,380.35 306.33,380.44 306.19,380.51 
		306.04,380.57 305.47,380.7 305.31,380.69 305.11,380.59 304.91,380.55 304.76,380.65 304.61,380.8 304.46,380.92 304.09,381.05 
		301.02,381.38 300.85,381.43 300.71,381.54 300.56,381.8 300.45,381.9 300.26,381.95 299.88,381.93 299.7,381.95 299.55,382.02 
		299.32,382.19 299.17,382.28 298.81,382.42 298.65,382.52 298.54,382.68 298.5,382.86 298.56,382.99 298.63,383.1 298.64,383.23 
		298.45,383.59 297.88,384.15 297.75,384.41 297.85,384.88 298.03,385.25 298.04,385.54 297.65,385.75 296.96,385.66 296.15,385.37 
		295.46,385.28 295.15,385.77 295.08,386.27 294.92,386.48 294.16,386.61 293.78,386.73 293.44,386.9 292.79,387.33 290.58,387.96 
		290.14,388.31 289.87,388.86 289.72,389.49 289.55,390.73 289.4,391.83 289.23,393.09 289,394.79 288.8,396.2 288.7,396.56 
		288.42,396.9 288.11,396.98 287.75,396.97 287.36,397.06 286.98,397.6 287.07,398.34 287.27,399.15 287.22,399.85 287.1,400.01 
		286.84,400.27 286.73,400.47 286.66,400.76 286.59,401.94 286.48,403.68 286.35,405.7 286.24,407.4 285.66,409.09 285.66,409.09 
		286.1,409.12 286.32,409.04 286.5,409.05 286.79,409.12 287.39,409.1 287.6,409.12 287.75,409.19 287.84,409.29 287.95,409.37 
		288.17,409.41 288.27,409.45 288.52,409.64 288.61,409.67 288.71,409.62 288.87,409.45 288.93,409.41 289.05,409.37 289.16,409.31 
		289.22,409.37 289.24,409.67 289.17,409.89 288.93,410.23 288.87,410.45 288.85,410.71 288.8,410.84 288.61,411.07 288.3,411.32 
		288.23,411.49 288.36,411.77 288.18,411.98 288.07,412.42 288.25,412.73 288.71,412.9 289.36,412.81 289.81,412.64 290.18,412.4 
		290.4,412.41 290.58,411.82 290.75,411.65 290.81,411.48 291.02,411.09 291.9,410.96 292.99,410.99 293.85,411.09 294.58,411.14 
		294.97,411.01 294.82,410.78 294.62,410.59 294.53,410.13 294.27,409.91 294.44,409.57 294.66,409.19 295.07,409.03 295.85,408.76 
		296.7,408.73 297.32,408.85 297.84,408.89 298.23,409.13 298.64,409.43 298.75,409.8 299.01,410.31 298.96,410.54 298.83,410.58 
		298.67,410.57 298.51,410.65 298.46,410.7 298.39,410.75 298.32,410.82 297.88,411.18 298.5,411.35 299.41,411.41 300.17,411.4 
		300.28,411.12 300.02,410.98 299.63,410.89 299.4,410.65 299.34,410.35 299.47,410.03 299.68,409.75 299.89,409.55 300.24,409.28 
		300.76,409 301.32,408.85 301.78,409 302.15,408.85 301.75,408.66 301.7,408.38 301.92,407.94 302.84,407.83 304.26,407.8 
		307.29,407.88 310.44,408.57 312,408.72 312.42,408.64 313.56,408.02 314.13,407.9 314.76,407.96 315.96,408.29 316.82,408.67 
		317.13,408.72 318.39,408.57 319.01,408.68 320.07,409.15 320.65,409.26 320.76,409.22 320.85,409.13 320.92,408.99 320.97,408.85 
		320.98,408.71 320.95,408.65 320.86,408.59 320.3,407.91 320.16,407.65 320.08,407.33 320.37,407.43 320.56,407.28 320.83,406.77 
		321.33,406.21 321.63,405.97 321.96,405.79 322.55,405.6 323.75,405.42 324.99,405.38 326.22,405.59 328.08,406.27 328.76,406.4 
		329.23,406.21 329.55,406.33 329.88,406.32 330.55,406.21 330.88,406.21 331.01,406.17 331.24,405.79 330.92,405.1 330.68,404.75 
		330.43,404.76 330.18,405.03 330,405.14 329.86,405.04 329.73,404.69 329.63,404.75 329.36,404.83 329.6,404.57 330.62,404.06 
		330.82,404.24 331.28,404.2 332.12,403.99 332.36,404 332.54,404.04 332.63,404.13 332.55,404.43 332.36,404.5 331.94,404.41 
		331.73,404.41 331.5,404.44 331.32,404.54 331.24,404.76 331.31,405.01 331.48,405.17 331.65,405.27 331.74,405.38 331.68,405.73 
		331.52,406.1 331.52,406.38 333.15,406.73 334.26,406.77 334.41,406.87 334.65,407.14 334.82,407.19 335.61,407.26 336.39,407.45 
		336.79,407.69 337.42,408.3 337.82,408.43 337.98,408.41 338.34,408.32 338.57,408.29 338.79,408.21 339.06,407.78 339.27,407.6 
		339.61,407.6 340.13,407.71 340.64,407.89 340.96,408.09 341.27,408.56 341.26,408.9 340.77,409.67 341.04,409.67 341.51,409.81 
		341.77,409.82 342.64,409.56 342.78,409.55 342.76,409.32 342.53,409.19 342.23,409.1 342.02,409 341.92,408.79 341.91,408.54 
		342.02,408.02 342.2,407.58 342.52,407.16 342.93,406.82 343.41,406.62 344.56,406.53 345.14,406.6 345.54,406.77 346.06,406.53 
		346.63,406.56 347.73,406.77 348.85,406.77 349.16,406.81 349.72,407 350.24,407.07 350.71,407.19 350.92,407.19 351.2,407.12 
		351.38,407.03 351.52,406.89 351.95,406.14 352.33,405.68 352.84,405.48 353.43,405.79 353.81,405.55 354.23,405.38 354.72,405.28 
		355.32,405.24 355.16,405.56 355.08,405.67 355.41,405.76 355.82,405.64 356.24,405.47 356.64,405.38 357.01,405.43 359.6,406.16 
		360.01,406.21 360.37,406.15 361.34,405.67 362.09,405.53 362.73,405.17 363.16,405.04 363.79,404.73 364.21,404.69 365,404.71 
		366.46,404.48 367.64,404.15 369.29,404.13 369.8,404.01 370.4,403.77 370.99,403.61 371.48,403.72 372.09,403.57 372.96,403.76 
		374.38,404.41 374.9,404.85 375.23,405.07 375.5,405.11 375.74,404.8 375.49,404.47 374.75,403.99 375.38,403.44 375.09,403.19 
		374.73,403.14 374.38,403.23 374.12,403.44 373.92,403.24 373.65,402.8 373.49,402.61 373.28,402.51 373.03,402.44 372.83,402.34 
		372.75,402.12 372.53,401.98 372.04,401.96 371.49,402.04 371.1,402.18 371.08,402.28 371.11,402.42 371.11,402.55 371.05,402.61 
		370.95,402.62 370.86,402.64 370.8,402.68 370.74,402.74 370.47,403.07 370.28,403.23 370.05,403.3 368.6,403.56 368.11,403.57 
		368.21,403.37 368.39,403.15 368.59,402.96 368.79,402.89 368.89,402.78 369.23,402.06 369.44,401.72 369.74,401.4 370.11,401.17 
		370.77,401.03 370.92,400.93 371.03,400.83 371.1,400.79 371.33,400.79 371.71,400.91 371.93,400.94 372.57,400.87 372.94,400.74 
		373.25,400.51 373.2,400.95 373.47,401.18 373.92,401.22 374.38,401.08 374.5,401.38 375.12,402.06 375.22,402.28 375.28,402.54 
		375.4,402.69 375.63,402.61 375.66,402.7 375.72,402.8 375.76,402.89 376.1,402.69 376.29,403.22 376.45,403.93 376.7,404.29 
		377.12,404.55 377.2,405.09 376.98,405.5 376.51,405.38 376.4,405.78 376.64,406.1 377.27,406.5 378.24,407.45 378.45,407.6 
		378.71,407.74 379.37,408.34 379.51,408.5 379.58,408.88 379.87,409.51 379.88,409.95 379.78,410.28 379.43,410.73 379.27,411.07 
		379.18,411.45 379.13,412.66 378.85,414.2 378.85,414.98 379.27,415.21 379.27,415.35 382.15,412.98 382.38,412.86 382.5,412.81 
		382.6,412.79 383.33,412.7 383.57,412.61 383.81,412.48 384.06,412.31 384.51,411.82 384.87,411.3 385.05,410.98 385.15,410.66 
		385.16,410.5 385.15,410.14 385.15,410.02 385.17,409.91 385.27,409.72 385.44,409.47 386.08,408.69 386.62,408.24 386.95,407.96 
		387.07,407.8 387.19,407.58 387.66,406.37 387.73,406.13 387.75,405.94 387.73,405.72 387.65,405.3 387.64,405.19 387.69,405 
		387.79,404.74 388.72,403.04 388.87,402.85 389.36,402.58 389.51,402.45 389.64,402.27 389.75,401.97 390.02,401.41 390.68,400.62 
		391.26,399.96 391.51,399.56 392.44,397.05 392.64,396.34 392.73,395.71 392.72,395.17 392.61,394.12 392.62,393.74 392.92,391.92 
		392.85,391.36 392.68,390.64 387.99,381.9 387.83,381.47 387.63,380.56 387.52,379.56 387.48,377.88 387.35,369.25 387.14,367.25 
		387.16,366.54 387.29,365.6 387.97,362.57 388.07,361.91 388.2,361.51 388.44,360.98 389.66,358.79 390.93,357.13 391.81,355.03 
		392.03,354.65 392.75,354.26 394.81,353.98 397.18,353.36 401.6,351.35 402.42,350.1 402.96,349.46 406.98,346.34 407.31,345.99 
		408.14,345.38 409.72,344.72 409.85,344.64 409.96,344.56 410.01,344.5 410.08,344.42 410.99,342.91 411.12,342.76 411.37,342.53 
		411.51,342.43 411.62,342.38 412.14,342.22 414.03,341.96 417.16,342.17 425.87,341.78 428.32,341.72 427.36,340.22 427.33,340.12 
		427.32,340 427.35,339.83 427.41,339.69 427.51,339.55 427.62,339.46 427.71,339.4 428.41,339.14 428.72,338.98 428.86,338.87 
		428.99,338.76 429.47,338.13 429.89,337.42 430.9,335.04 430.98,334.66 430.95,334.52 430.91,334.41 430.85,334.34 430.65,334.16 
		430.54,334.04 430.51,333.98 430.48,333.93 430.46,333.86 430.45,333.69 430.47,333.43 430.57,332.9 430.69,332.54 430.79,332.3 
		430.88,332.18 430.95,332.11 431.45,331.74 431.71,331.51 432.11,331.02 433.01,329.55 433.25,329.29 433.38,329.17 433.52,329.07 
		433.76,328.95 433.87,328.87 434,328.7 434.21,328.29 434.86,325.14 434.89,324.79 434.87,324.57 434.8,324.48 434.72,324.45 
		434.63,324.46 434.54,324.49 434.47,324.53 434.39,324.58 434.27,324.7 434.15,324.83 434.09,324.88 434.03,324.92 433.95,324.92 
		433.89,324.88 433.83,324.82 433.45,324.24 433.42,324.08 433.41,323.84 433.48,323.31 433.49,323.01 433.47,322.79 433.43,322.69 
		433.39,322.61 433.34,322.54 433.21,322.42 433.07,322.31 432.98,322.27 432.78,322.21 432,322.13 431.9,322.1 431.81,322.06 
		431.75,321.98 431.7,321.86 431.69,321.61 432.24,319.02 432.19,318.33 432.19,317.72 432.25,317.44 432.33,317.2 432.55,316.84 
		432.64,316.72 432.72,316.66 432.8,316.6 433.12,316.45 433.46,316.32 434.57,316.13 434.96,315.79 435.55,314.85 435.64,314.74 
		436.1,314.44 436.44,314.16 436.61,313.96 436.78,313.63 437.66,311.39 438.62,309.39 438.87,308.6 438.87,308.09 438.89,307.88 
		438.97,307.48 439.06,307.24 439.15,307.07 439.42,306.79 439.64,306.61 439.75,306.45 440.23,305.52 440.33,305.12 440.35,304.85 
		440.28,304.74 440.19,304.68 440.09,304.65 439.87,304.61 439.68,304.61 439.6,304.62 439.54,304.64 439.41,304.71 439.35,304.76 
		439.28,304.83 439.22,304.9 439.05,305.22 438.99,305.28 438.92,305.3 438.86,305.28 438.82,305.22 438.79,305.15 438.77,305.08 
		438.76,304.93 438.77,304.49 438.75,304.39 438.71,304.32 438.64,304.26 438.44,304.18 438.35,304.12 438.28,304 438.28,303.86 
		438.34,303.68 438.47,303.39 438.82,302.09 438.97,300.94 439.18,300.37 440.76,297.67 440.86,297.42 440.91,297.22 440.88,297.08 
		440.84,296.97 440.65,296.64 440.61,296.55 440.61,296.37 440.64,296.09 440.77,295.5 440.9,295.2 441.03,295.03 441.15,294.98 
		441.59,294.95 441.68,294.93 441.75,294.88 443.26,292.8 443.37,292.75 443.7,292.72 443.81,292.68 443.91,292.55 443.94,292.34 
		443.9,292.04 443.7,291.43 443.94,287.2 443.78,286.49 443.75,285.98 443.78,285.12 444.07,283.31 444.02,281.87 444.05,281.65 	
		"/>
	
		<polygon id="Azad_Kashmir" fill-rule="evenodd" fill="#FFE3CA" stroke="#999999" stroke-width="0.25" stroke-linecap="round" stroke-linejoin="round" points="
		535.6,206.76 535.29,206.04 534.85,205.44 534,204.53 533.63,204.35 533.61,204.35 533.29,204.43 533.29,204.43 532.64,205.04 
		532.28,205.24 532.28,205.24 531.56,205.38 531.14,205.54 530.58,205.63 529.72,205.62 529.72,205.62 528.6,205.28 527.37,204.76 
		524.85,203.28 524.35,202.78 523.96,202.07 523.25,200.42 522.79,199.66 522.28,199.08 521.7,198.77 521.24,198.69 521.22,198.69 
		520.27,198.96 519.17,199.36 517.68,199.51 517.66,199.51 515.99,199.26 515.95,199.26 515.27,199.24 515.03,199.24 514.57,199.38 
		514.37,199.55 514.24,199.7 514.23,199.7 514.15,199.84 513.99,200.22 513.96,200.34 513.96,200.44 513.99,200.51 514.02,200.56 
		514.03,200.58 514.05,200.6 514.08,200.64 514.12,200.67 514.14,200.69 514.36,200.79 514.36,200.79 514.45,200.86 514.54,200.98 
		514.61,201.14 514.59,201.23 514.59,201.24 514.54,201.31 514.54,201.31 514.43,201.38 514.32,201.46 514.31,201.46 514.13,201.65 
		513.98,201.86 513.93,202.03 513.9,202.23 513.92,202.57 513.88,202.76 513.79,202.95 513.74,203 513.71,203.03 513.52,203.18 
		513.51,203.18 513.42,203.3 513.38,203.36 513.38,203.36 513.3,203.57 513.2,203.95 513.19,203.95 513.16,204 513.08,204.11 
		513.08,204.12 513.04,204.16 512.98,204.21 512.97,204.22 512.97,204.22 512.76,204.3 512.55,204.38 512.46,204.41 512.35,204.43 
		512.06,204.46 511.92,204.52 511.92,204.52 511.79,204.62 511.79,204.63 511.7,204.72 511.6,204.81 511.6,204.81 511.47,205.04 
		511.47,205.04 511.45,205.07 511.38,205.14 511.36,205.17 511.22,205.28 511.12,205.33 511.07,205.37 511.07,205.37 510.74,205.63 
		510.73,205.63 510.69,205.65 510.63,205.68 510.63,205.68 509.84,205.6 509.45,205.68 509.38,205.71 509.38,205.71 509.05,205.96 
		509.03,205.97 508.89,206.05 508.79,206.08 508.68,206.1 508.33,206.08 508.19,206.14 508.18,206.14 508,206.26 507.61,206.55 
		507.42,206.73 507.29,206.9 507.29,206.9 507.16,207.15 507,207.62 506.91,207.8 506.36,208.66 506.33,208.76 506.31,208.86 
		506.33,208.96 506.37,209.05 506.49,209.27 506.53,209.39 506.54,209.5 506.52,209.62 506.15,210.69 505.97,211.05 505.89,211.14 
		505.86,211.17 505.77,211.17 505.77,211.17 505.73,211.11 505.69,211.05 505.62,210.91 505.58,210.79 505.58,210.79 505.58,210.79 
		505.55,210.74 505.53,210.7 505.53,210.7 505.44,210.65 505.31,210.63 505.27,210.63 505.13,210.62 504.97,210.65 504.81,210.7 
		504.57,210.82 504.23,211 504.21,211 504.13,211.01 504.1,211.01 504.06,211.01 503.67,210.93 503.58,210.92 503.56,210.92 
		503.5,210.92 502.95,211.02 502.94,211.03 502.77,211.11 502.69,211.2 502.64,211.3 502.62,211.39 502.61,211.5 502.61,211.69 
		502.6,211.77 502.56,211.85 502.47,212.01 502.44,212.1 502.43,212.2 502.47,212.79 502.46,212.86 502.44,212.93 502.42,212.99 
		502.3,213.19 502.28,213.24 502.28,213.25 502.28,213.25 502.26,213.34 502.27,214.01 502.25,214.13 502.25,214.13 502.24,214.18 
		502.14,214.59 502.05,214.86 501.84,215.23 501.78,215.35 501.78,215.35 501.9,215.8 502.64,216.89 502.79,217.2 502.86,217.41 
		503.13,217.71 503.13,217.71 503.43,219.27 503.45,219.65 503.41,220.35 503.41,220.42 503.42,220.56 503.43,220.8 503.44,220.82 
		503.76,222.15 503.94,223.45 503.94,223.47 503.94,223.47 503.94,223.48 505.06,225.63 505.11,226.37 504.83,227.99 505,228.57 
		505.22,228.89 505.36,229.26 505.42,229.66 505.44,230.08 505.35,230.37 505.02,231.07 505,231.28 505.04,231.42 504.94,231.72 
		505,231.88 505.5,232.33 505.7,232.61 505.89,233 506.03,233.41 506.07,233.76 506,233.97 505.88,234.04 505.77,234.08 
		505.7,234.23 505.71,234.44 505.85,235.16 505.91,235.32 505.95,235.5 505.94,235.71 505.84,235.79 505.81,235.79 505.67,235.83 
		505.67,235.83 505.51,235.94 505.33,236.59 505.12,236.85 504.95,237.13 505,237.52 505.19,237.82 505.4,238.1 505.49,238.32 
		505.44,238.56 505.39,238.71 505.31,238.95 505.34,239.35 505.42,239.78 505.44,240.21 505.38,240.26 505.25,240.33 505.22,240.34 
		505.12,240.37 505.06,240.37 505.07,240.39 505.09,240.59 505.14,240.62 505.21,240.61 505.33,240.61 505.34,240.61 505.43,240.57 
		505.46,240.55 505.61,240.52 505.7,240.52 505.71,240.58 505.73,240.71 505.76,240.86 505.81,240.97 506.18,241.21 506.33,241.34 
		506.44,241.56 506.43,241.82 506.34,242.06 506.25,242.23 506.26,242.47 505.84,242.88 506.17,243.34 506.76,243.74 507.85,244.23 
		508.42,244.6 508.6,244.93 508.84,245.06 509.2,245.27 509.5,245.31 509.63,245.26 509.64,245.26 509.96,245.08 510,245.06 
		510.18,245.01 510.44,244.97 511.06,244.94 511.4,245.03 511.71,245.2 511.86,245.35 511.95,245.46 512.01,245.56 512.02,245.59 
		512.33,246.12 512.44,246.27 518.55,249.45 518.66,249.29 518.86,248.88 518.91,248.43 518.69,247.31 518.64,246.21 518.45,245.72 
		517.95,245.41 516.24,245.12 515.57,244.72 514.55,243.31 513.96,242.7 513.29,242.23 512.79,241.72 512.54,241.04 512.6,240.08 
		512.78,239.69 513.08,239.49 513.76,239.22 514.07,238.99 514.31,238.73 514.51,238.42 514.68,238.05 515.24,236.46 515.64,234.78 
		515.34,233.57 514.36,232.79 513.19,232.15 512.33,231.4 512.17,231.1 512.08,230.78 512.03,230.43 512.08,229.79 512.13,229.51 
		512.22,229.23 512.33,228.97 512.96,227.83 513.38,227.43 515.35,227.09 516,226.8 516.64,226.34 517.13,225.84 517.55,225.2 
		517.73,224.49 517.5,223.78 516.93,223.37 516.27,223.39 515.57,223.57 514.92,223.6 513.95,223.25 513.58,223.23 512.33,223.55 
		511.76,223.44 511.22,223.04 510.81,222.46 510.64,221.8 510.8,221.12 511.23,220.67 512.33,220.09 512.67,219.76 512.72,219.31 
		512.58,218.83 512.33,218.41 511.92,217.31 511.61,216.93 511.06,216.87 510.54,216.93 510.07,216.86 509.62,216.68 509.17,216.41 
		508.78,215.99 508.63,215.45 508.72,214.89 509.02,214.4 509.22,214.25 509.67,214 509.83,213.82 509.93,213.55 509.95,212.72 
		509.95,212.71 510.25,212.21 511.12,211.59 511.4,211.15 511.39,210.51 511.24,209.94 511.28,209.42 511.81,208.97 512.06,208.85 
		514.96,208.35 515.44,208.1 516.81,207.08 517.98,206.61 519.13,206.51 520.29,206.71 524.92,208.4 531.37,209.71 533.08,209.62 
		534.27,209.36 534.94,209.37 535.16,209.51 535.16,209.51 535.16,209.49 535.19,209.28 535.19,209.28 535.65,208.22 535.65,208.21 
		535.72,207.5 	"/>
</g>
<g id="Lahore-layer">
	<path id="Lahore" fill-rule="evenodd" fill="#DD172A" stroke="#999999" stroke-width="0.125" d="M522.58,271.84l-0.01,0.28
		l-0.03,0.1l-0.08,0.07l-0.14,0.2l-0.03,0.1l-0.05,0.26l-0.04,0.1l-0.05,0.05l-0.14,0.07l-0.29,0.45l1.21,2.13l0.53,2.03l0.55,0.85
		l-0.21-0.01c-0.53-0.65-1.1,0.08-1.1,0.08l-0.3,0.87l-0.28,0.11l-0.66-0.03l-0.38,0.24l-0.25,0.05l-0.75,0.01l-0.78-0.16l-0.78,0.7
		h-0.21l-0.63-0.74l-0.21,0.24l-0.16-0.05l-0.45-0.28l-0.51,0.65l-0.49-0.29h-0.29l-0.18-0.31c0,0-1.98-1.49-0.43-1.49
		c1.55,0,0.81-0.99,0.81-0.99l0.56-0.81l0.56,0.43l0.62-0.74l0.31-0.99l0.68-0.68l0.25-0.68v-0.68l0.56-0.37l0.56-0.62
		c0,0,0.43,0.37,0.62,0.37c0.19,0,0.81-0.37,0.81-0.37l0.87,0.37l0.4-0.63L522.58,271.84"/>
</g>
<g id="Text">
	<text transform="matrix(1 0 0 1 405.2222 324.4497)" fill="#333333" font-family="'Roboto-Medium'" font-size="12px">P</text>
	<text transform="matrix(1 0 0 1 411.4146 324.4497)" fill="#333333" font-family="'Roboto-Medium'" font-size="12px">a</text>
	<text transform="matrix(1 0 0 1 417.3184 324.4497)" fill="#333333" font-family="'Roboto-Medium'" font-size="12px">k</text>
	<text transform="matrix(1 0 0 1 423.27 324.4497)" fill="#333333" font-family="'Roboto-Medium'" font-size="12px">i</text>
	<text transform="matrix(1 0 0 1 426.1982 324.4497)" fill="#333333" font-family="'Roboto-Medium'" font-size="12px">s</text>
	<text transform="matrix(1 0 0 1 431.0698 324.4497)" fill="#333333" font-family="'Roboto-Medium'" font-size="12px">t</text>
	<text transform="matrix(1 0 0 1 435.1616 324.4497)" fill="#333333" font-family="'Roboto-Medium'" font-size="12px">a</text>
	<text transform="matrix(1 0 0 1 441.0659 324.4497)" fill="#333333" font-family="'Roboto-Medium'" font-size="12px">n</text>
</g>
</svg>
