<svg width="167" height="184" fill="none" xmlns="http://www.w3.org/2000/svg"><path opacity=".2" stroke="#000" stroke-opacity=".01" d="M.5 8.5h163v163H.5z"/><g filter="url(#filter0_d)"><circle cx="145.925" cy="25.883" r="8.319" fill="#4289F6"/><circle cx="145.925" cy="25.883" r="6.537" stroke="#4289F6" stroke-width="3.565"/></g><circle opacity=".45" cx="133.534" cy="97.115" r="27.675" stroke="#4289F6" stroke-width="4.88" stroke-dasharray="3.25 3.25"/><path d="M75.384 97.94v7.664h-4.05V83.83h7.092c1.456 0 2.715.171 3.78.512 1.064.342 1.942.819 2.635 1.43a5.602 5.602 0 0 1 1.535 2.2c.332.853.497 1.786.497 2.8 0 1.054-.175 2.023-.527 2.906a6.028 6.028 0 0 1-1.58 2.259c-.703.632-1.582 1.124-2.636 1.475-1.054.352-2.288.527-3.704.527h-3.042zm0-3.163h3.042c.743 0 1.39-.09 1.942-.27.553-.191 1.01-.458 1.37-.799.362-.351.633-.773.814-1.265.18-.501.27-1.059.27-1.671 0-.582-.09-1.11-.27-1.581a3.126 3.126 0 0 0-.813-1.205c-.362-.33-.818-.582-1.37-.752-.553-.181-1.2-.272-1.943-.272h-3.042v7.815zm25.568 1.792c.171.321.327.658.467 1.01.151.34.296.687.437 1.038.14-.361.286-.718.436-1.07.151-.35.312-.687.482-1.008l6.445-12.061c.08-.15.161-.271.241-.361a.858.858 0 0 1 .286-.196c.11-.04.231-.066.361-.076a6.23 6.23 0 0 1 .467-.015h3.057v21.774h-3.569V91.54c0-.261.005-.547.015-.858.02-.311.045-.628.075-.949l-6.58 12.347c-.15.281-.346.502-.587.663-.241.15-.522.226-.843.226h-.557c-.322 0-.603-.076-.844-.226a1.814 1.814 0 0 1-.587-.663l-6.67-12.392a11 11 0 0 1 .075.979c.02.31.03.602.03.873v14.064H90.02V83.83h3.057c.18 0 .336.005.467.016.13.01.246.035.346.075.11.04.211.105.301.195.09.09.176.211.256.362l6.505 12.091zm20.551.664c.574 0 1.099.086 1.575.258a3.49 3.49 0 0 1 1.221.715c.339.31.603.682.792 1.118.189.436.284.921.284 1.454 0 .459-.069.884-.206 1.274-.132.39-.313.763-.543 1.118a7.22 7.22 0 0 1-.791 1.033 53.19 53.19 0 0 1-.955 1.015l-2.805 2.865c.275-.08.545-.14.809-.18.263-.046.516-.069.757-.069h3.192c.229 0 .41.066.542.198a.653.653 0 0 1 .207.507v1.274h-8.536v-.706c0-.143.029-.292.086-.447.063-.155.161-.299.293-.43l3.777-3.786c.315-.322.596-.628.843-.921.253-.293.462-.582.628-.869.172-.287.301-.577.387-.869.092-.298.138-.611.138-.938 0-.298-.043-.559-.129-.783a1.532 1.532 0 0 0-.37-.576 1.509 1.509 0 0 0-.576-.345 2.132 2.132 0 0 0-.74-.12c-.511 0-.933.129-1.265.387a2.04 2.04 0 0 0-.689 1.041c-.063.218-.157.376-.284.473a.794.794 0 0 1-.481.138c-.086 0-.181-.008-.284-.026l-1.119-.198a4.584 4.584 0 0 1 .499-1.566 3.73 3.73 0 0 1 .921-1.127 3.8 3.8 0 0 1 1.273-.68 5.033 5.033 0 0 1 1.549-.232zm5.431 11.41c0-.178.031-.347.094-.508a1.3 1.3 0 0 1 .276-.413c.12-.115.261-.207.421-.275a1.298 1.298 0 0 1 1.024 0 1.271 1.271 0 0 1 .689.688 1.313 1.313 0 0 1 0 1.024 1.33 1.33 0 0 1-.276.404 1.178 1.178 0 0 1-.413.267 1.27 1.27 0 0 1-.507.103c-.184 0-.356-.034-.517-.103a1.28 1.28 0 0 1-.421-.267 1.33 1.33 0 0 1-.276-.404 1.403 1.403 0 0 1-.094-.516zm11.747-10.369c0 .304-.098.551-.293.74-.189.19-.508.284-.955.284h-3.425l-.447 2.599a7.737 7.737 0 0 1 1.54-.172c.654 0 1.228.097 1.721.292a3.54 3.54 0 0 1 1.256.809c.339.344.594.749.766 1.213.172.459.258.955.258 1.489 0 .659-.117 1.262-.353 1.807a4.072 4.072 0 0 1-.963 1.402 4.374 4.374 0 0 1-1.472.895 5.177 5.177 0 0 1-1.841.318c-.39 0-.76-.04-1.11-.12-.35-.08-.68-.186-.989-.318a6.416 6.416 0 0 1-.852-.465 5.815 5.815 0 0 1-.697-.559l.654-.904a.64.64 0 0 1 .55-.292.8.8 0 0 1 .431.137c.149.092.321.193.516.301.195.109.422.21.68.302.258.091.57.137.938.137.39 0 .734-.063 1.032-.189.298-.126.545-.301.74-.525a2.21 2.21 0 0 0 .447-.809c.104-.315.155-.656.155-1.024 0-.676-.198-1.204-.593-1.583-.39-.384-.967-.576-1.73-.576-.602 0-1.207.109-1.815.327l-1.325-.379 1.032-6.04h6.144v.903z" fill="#000"/><path d="M37.424 151.204a1.189 1.189 0 0 0 1.485 1.426l36.716-10.645a1.189 1.189 0 0 0 .492-1.999L48.54 113.512a1.188 1.188 0 0 0-1.977.573l-9.139 37.119z" fill="#1CDC97" filter="url(#filter1_d)"/><path d="M41.09 127.419c0 1.016-.162 1.95-.484 2.802a6.417 6.417 0 0 1-1.362 2.186 6.14 6.14 0 0 1-2.12 1.429c-.82.335-1.73.502-2.726.502-.997 0-1.906-.167-2.726-.502a6.16 6.16 0 0 1-2.11-1.429 6.417 6.417 0 0 1-1.364-2.186c-.322-.852-.483-1.786-.483-2.802s.161-1.947.483-2.792a6.395 6.395 0 0 1 1.363-2.196 6.103 6.103 0 0 1 2.11-1.439c.821-.34 1.73-.511 2.727-.511.997 0 1.905.171 2.725.511a6.082 6.082 0 0 1 2.12 1.439 6.395 6.395 0 0 1 1.363 2.196c.322.845.483 1.776.483 2.792zm-1.884 0c0-.833-.114-1.581-.341-2.243-.227-.663-.549-1.221-.965-1.675a4.157 4.157 0 0 0-1.515-1.06c-.593-.247-1.255-.37-1.987-.37-.726 0-1.385.123-1.979.37a4.246 4.246 0 0 0-1.523 1.06c-.417.454-.739 1.012-.966 1.675-.227.662-.34 1.41-.34 2.243s.113 1.581.34 2.243c.227.656.55 1.215.966 1.675a4.3 4.3 0 0 0 1.523 1.051c.594.24 1.253.36 1.979.36.732 0 1.394-.12 1.987-.36a4.208 4.208 0 0 0 1.515-1.051c.416-.46.738-1.019.965-1.675.227-.662.34-1.41.34-2.243zm8.57 2.659c.328 0 .631.047.909.141.277.094.515.227.714.4.201.173.358.382.47.627.112.246.168.518.168.817 0 .245-.033.465-.097.66a1.565 1.565 0 0 1-.693.876 2.354 2.354 0 0 1-.557.243c.505.134.884.357 1.136.671.256.314.384.707.384 1.179a2.195 2.195 0 0 1-.757 1.693 2.544 2.544 0 0 1-.822.46c-.31.104-.644.157-1 .157-.412 0-.764-.051-1.056-.152a2.217 2.217 0 0 1-.74-.427 2.27 2.27 0 0 1-.498-.638 4.916 4.916 0 0 1-.33-.806l.411-.173a.564.564 0 0 1 .227-.049c.072 0 .135.016.19.049.057.029.1.075.13.14a.789.789 0 0 1 .02.049 9.794 9.794 0 0 0 .206.406 1.54 1.54 0 0 0 .747.66c.184.079.41.118.681.118.27 0 .507-.043.709-.129.205-.09.375-.206.508-.346a1.424 1.424 0 0 0 .411-.985c0-.209-.029-.4-.086-.573a.96.96 0 0 0-.303-.449c-.144-.126-.346-.225-.606-.297-.256-.073-.586-.109-.99-.109v-.697a3.14 3.14 0 0 0 .839-.108 1.65 1.65 0 0 0 .573-.282 1.02 1.02 0 0 0 .319-.427c.069-.166.103-.35.103-.552a1.46 1.46 0 0 0-.108-.584 1.093 1.093 0 0 0-.287-.411 1.209 1.209 0 0 0-.438-.243 1.738 1.738 0 0 0-.541-.081c-.195 0-.375.029-.54.086a1.469 1.469 0 0 0-.444.244 1.366 1.366 0 0 0-.32.367 1.682 1.682 0 0 0-.194.46.43.43 0 0 1-.13.227.34.34 0 0 1-.222.071h-.06a.651.651 0 0 0-.064-.011l-.503-.087c.05-.353.148-.665.292-.935.144-.274.326-.503.546-.687.224-.184.478-.323.763-.417.288-.097.598-.146.93-.146z" fill="#000" opacity=".34"/><path transform="rotate(45 39.214 121.986)" fill="#FFD741" filter="url(#filter2_d)" d="M0 0h17.245v17.245H0z"/><path opacity=".5" d="M72.128 47.51c.113 0 .216.046.308.139l.81.883a6.515 6.515 0 0 1-2.279 1.693c-.887.405-1.96.607-3.216.607-1.1 0-2.097-.188-2.992-.564a6.65 6.65 0 0 1-2.289-1.597c-.632-.689-1.122-1.512-1.47-2.47-.347-.959-.521-2.013-.521-3.163s.184-2.204.553-3.162a7.29 7.29 0 0 1 1.576-2.47 6.977 6.977 0 0 1 2.417-1.598c.945-.383 1.984-.575 3.12-.575 1.122 0 2.087.174 2.897.522.816.348 1.54.82 2.172 1.416l-.671.948a.833.833 0 0 1-.17.18.499.499 0 0 1-.277.065.586.586 0 0 1-.299-.096l-.361-.256a7.927 7.927 0 0 0-.501-.32 4.393 4.393 0 0 0-.681-.319 5.314 5.314 0 0 0-.916-.245 6.064 6.064 0 0 0-1.203-.106c-.817 0-1.566.142-2.247.426a4.97 4.97 0 0 0-1.746 1.192c-.49.519-.873 1.15-1.15 1.896-.27.745-.405 1.58-.405 2.502 0 .951.135 1.8.405 2.545.277.745.65 1.377 1.118 1.895a4.797 4.797 0 0 0 1.682 1.171 5.36 5.36 0 0 0 2.087.405 9.07 9.07 0 0 0 1.225-.075 5.164 5.164 0 0 0 1-.255c.313-.114.6-.256.863-.426.27-.177.54-.387.81-.628.12-.107.237-.16.35-.16zm17.996-4.472c0 1.143-.181 2.193-.543 3.152a7.214 7.214 0 0 1-1.533 2.46 6.903 6.903 0 0 1-2.385 1.607c-.923.377-1.945.565-3.067.565s-2.144-.189-3.067-.565a6.926 6.926 0 0 1-2.374-1.608 7.214 7.214 0 0 1-1.533-2.46c-.362-.958-.543-2.008-.543-3.151 0-1.143.18-2.19.543-3.141a7.194 7.194 0 0 1 1.533-2.47 6.856 6.856 0 0 1 2.374-1.619c.923-.383 1.945-.575 3.067-.575 1.121 0 2.144.192 3.067.575.93.383 1.725.923 2.385 1.618a7.194 7.194 0 0 1 1.533 2.47c.362.952.543 2 .543 3.142zm-2.119 0c0-.937-.128-1.778-.383-2.524-.256-.745-.618-1.373-1.086-1.884a4.682 4.682 0 0 0-1.704-1.193c-.667-.277-1.413-.415-2.236-.415-.816 0-1.558.138-2.225.415a4.783 4.783 0 0 0-1.715 1.193c-.468.51-.83 1.14-1.086 1.884-.255.746-.383 1.587-.383 2.524s.128 1.778.383 2.524c.256.738.618 1.366 1.086 1.884a4.846 4.846 0 0 0 1.715 1.182c.667.27 1.409.405 2.225.405.823 0 1.569-.135 2.236-.405a4.743 4.743 0 0 0 1.704-1.182c.468-.518.83-1.146 1.086-1.884.255-.746.383-1.587.383-2.524z" fill="#000"/><path d="M25.757 54.615a.685.685 0 0 1-.153.185.357.357 0 0 1-.209.056c-.09 0-.198-.046-.32-.137a4.038 4.038 0 0 0-.459-.297 3.38 3.38 0 0 0-.666-.305 2.83 2.83 0 0 0-.94-.136c-.348 0-.656.048-.923.144a1.959 1.959 0 0 0-.675.378c-.177.16-.31.35-.401.57a1.768 1.768 0 0 0-.137.699c0 .32.078.588.233.803.16.208.37.388.626.538.263.15.557.28.884.393.332.107.669.22 1.012.337.348.118.685.252 1.011.402.332.145.627.33.884.554.262.225.471.5.626.827.16.327.241.728.241 1.205a3.9 3.9 0 0 1-.257 1.421 3.25 3.25 0 0 1-.755 1.149c-.326.326-.73.583-1.212.77-.477.188-1.02.282-1.63.282a5.062 5.062 0 0 1-2.04-.402 4.839 4.839 0 0 1-1.566-1.1l.45-.739a.56.56 0 0 1 .152-.144.37.37 0 0 1 .209-.065c.112 0 .24.062.385.185.145.118.324.249.538.394.22.144.482.278.787.401.31.118.688.177 1.133.177.369 0 .698-.051.987-.153a2.07 2.07 0 0 0 .731-.425c.204-.188.359-.41.466-.667.107-.257.16-.543.16-.86 0-.347-.08-.631-.24-.85a1.901 1.901 0 0 0-.619-.563 4.178 4.178 0 0 0-.883-.377 58.004 58.004 0 0 0-1.012-.321 11.57 11.57 0 0 1-1.012-.386 3.311 3.311 0 0 1-.875-.562 2.64 2.64 0 0 1-.627-.86c-.155-.347-.233-.776-.233-1.284 0-.407.078-.8.233-1.18a3.11 3.11 0 0 1 .691-1.013c.3-.294.67-.53 1.108-.706.445-.177.953-.265 1.526-.265a4.87 4.87 0 0 1 1.759.305c.53.203.993.498 1.39.883l-.378.74zm13.311 3.96c0 .861-.136 1.653-.41 2.376a5.443 5.443 0 0 1-1.156 1.855 5.209 5.209 0 0 1-1.799 1.213c-.696.284-1.467.426-2.313.426-.846 0-1.617-.142-2.313-.426a5.226 5.226 0 0 1-1.79-1.213 5.442 5.442 0 0 1-1.157-1.855 6.676 6.676 0 0 1-.41-2.377c0-.862.137-1.651.41-2.369a5.426 5.426 0 0 1 1.157-1.863 5.17 5.17 0 0 1 1.79-1.22c.696-.29 1.467-.434 2.313-.434.846 0 1.617.144 2.313.433.701.29 1.301.696 1.8 1.221a5.44 5.44 0 0 1 1.155 1.863c.273.718.41 1.507.41 2.37zm-1.598 0c0-.708-.096-1.342-.29-1.904a3.985 3.985 0 0 0-.818-1.422 3.533 3.533 0 0 0-1.285-.899 4.362 4.362 0 0 0-1.687-.313 4.34 4.34 0 0 0-1.678.313 3.608 3.608 0 0 0-1.293.9 4.009 4.009 0 0 0-.82 1.42c-.192.563-.288 1.197-.288 1.904 0 .707.096 1.341.289 1.904.193.556.466 1.03.819 1.42.359.386.79.684 1.293.892a4.44 4.44 0 0 0 1.678.306c.621 0 1.184-.102 1.687-.306a3.577 3.577 0 0 0 1.285-.891c.353-.39.626-.865.819-1.422.193-.562.289-1.196.289-1.903zm4.26 3.644c.279 0 .54.041.78.124.242.083.45.204.625.363.177.156.317.347.418.573.1.227.15.484.15.771 0 .245-.036.471-.11.68a2.826 2.826 0 0 1-.298.6c-.125.19-.27.375-.436.556-.162.177-.334.36-.518.546l-1.73 1.771a3.11 3.11 0 0 1 .734-.11h2.203c.089 0 .159.026.211.078.052.052.078.12.078.202v.496H39.45v-.28a.54.54 0 0 1 .032-.18.506.506 0 0 1 .115-.169l2.106-2.116c.174-.177.334-.347.477-.509.144-.165.267-.33.367-.496.105-.165.184-.332.24-.5.054-.171.082-.353.082-.546 0-.193-.03-.36-.092-.505a.977.977 0 0 0-.629-.573 1.43 1.43 0 0 0-.463-.074 1.39 1.39 0 0 0-.46.074 1.247 1.247 0 0 0-.65.514 1.24 1.24 0 0 0-.157.394.366.366 0 0 1-.11.193.296.296 0 0 1-.193.06h-.05a.932.932 0 0 0-.055-.01l-.427-.073c.043-.3.125-.564.248-.794.122-.232.277-.427.463-.583.19-.156.406-.273.647-.353.245-.083.508-.124.79-.124z" fill="#000" opacity=".2"/><rect x="11.366" y="41.226" width="37.859" height="37.859" rx="2.366" stroke="#FF7338" stroke-width="4.732" filter="url(#filter3_d)"/><defs><filter id="filter0_d" x="125.721" y="10.432" width="40.409" height="40.409" filterUnits="userSpaceOnUse" color-interpolation-filters="sRGB"><feFlood flood-opacity="0" result="BackgroundImageFix"/><feColorMatrix in="SourceAlpha" values="0 0 0 0 0 0 0 0 0 0 0 0 0 0 0 0 0 0 127 0"/><feOffset dy="4.754"/><feGaussianBlur stdDeviation="5.942"/><feColorMatrix values="0 0 0 0 0 0 0 0 0 0 0 0 0 0 0 0 0 0 0.2 0"/><feBlend in2="BackgroundImageFix" result="effect1_dropShadow"/><feBlend in="SourceGraphic" in2="effect1_dropShadow" result="shape"/></filter><filter id="filter1_d" x="11.223" y="105.557" width="77.637" height="77.49" filterUnits="userSpaceOnUse" color-interpolation-filters="sRGB"><feFlood flood-opacity="0" result="BackgroundImageFix"/><feColorMatrix in="SourceAlpha" values="0 0 0 0 0 0 0 0 0 0 0 0 0 0 0 0 0 0 127 0"/><feOffset dy="4.754"/><feGaussianBlur stdDeviation="5.942"/><feColorMatrix values="0 0 0 0 0 0 0 0 0 0 0 0 0 0 0 0 0 0 0.2 0"/><feBlend in2="BackgroundImageFix" result="effect1_dropShadow"/><feBlend in="SourceGraphic" in2="effect1_dropShadow" result="shape"/></filter><filter id="filter2_d" x="73.664" y=".869" width="48.157" height="48.157" filterUnits="userSpaceOnUse" color-interpolation-filters="sRGB"><feFlood flood-opacity="0" result="BackgroundImageFix"/><feColorMatrix in="SourceAlpha" values="0 0 0 0 0 0 0 0 0 0 0 0 0 0 0 0 0 0 127 0"/><feOffset dy="4.754"/><feGaussianBlur stdDeviation="5.942"/><feColorMatrix values="0 0 0 0 0 0 0 0 0 0 0 0 0 0 0 0 0 0 0.1 0"/><feBlend in2="BackgroundImageFix" result="effect1_dropShadow"/><feBlend in="SourceGraphic" in2="effect1_dropShadow" result="shape"/></filter><filter id="filter3_d" x="1" y="34.859" width="58.592" height="58.592" filterUnits="userSpaceOnUse" color-interpolation-filters="sRGB"><feFlood flood-opacity="0" result="BackgroundImageFix"/><feColorMatrix in="SourceAlpha" values="0 0 0 0 0 0 0 0 0 0 0 0 0 0 0 0 0 0 127 0"/><feOffset dy="4"/><feGaussianBlur stdDeviation="4"/><feColorMatrix values="0 0 0 0 0 0 0 0 0 0 0 0 0 0 0 0 0 0 0.1 0"/><feBlend in2="BackgroundImageFix" result="effect1_dropShadow"/><feBlend in="SourceGraphic" in2="effect1_dropShadow" result="shape"/></filter></defs></svg>